M48
; DRILL file KiCad 10.0.0 date 2026-04-11T13:35:50
; FORMAT={-:-/ absolute / metric / decimal}
; #@! TF.CreationDate,2026-04-11T13:35:50+05:30
; #@! TF.GenerationSoftware,Kicad,Pcbnew,10.0.0
; #@! TF.FileFunction,Plated,1,2,PTH
FMAT,2
METRIC
; #@! TA.AperFunction,Plated,PTH,ViaDrill
T1C0.356
; #@! TA.AperFunction,Plated,PTH,ComponentDrill
T2C0.750
; #@! TA.AperFunction,Plated,PTH,ComponentDrill
T3C0.800
; #@! TA.AperFunction,Plated,PTH,ComponentDrill
T4C1.000
; #@! TA.AperFunction,Plated,PTH,ComponentDrill
T5C1.100
; #@! TA.AperFunction,Plated,PTH,ComponentDrill
T6C1.300
%
G90
G05
T1
X186.51Y-101.82
X205.75Y-67.15
X207.54Y-65.9
X207.9Y-64.0
X210.12Y-124.12
X210.705Y-115.645
X210.8Y-127.0
X228.2Y-64.2
X228.3Y-127.0
T2
X203.605Y-115.125
X204.875Y-115.125
X206.145Y-115.125
X206.96Y-76.0
X208.23Y-76.0
X209.5Y-76.0
X223.605Y-115.125
X224.875Y-115.125
X226.145Y-115.125
X226.605Y-75.625
X227.875Y-75.625
X229.145Y-75.625
T3
X162.19Y-84.5
X162.19Y-88.5
X169.75Y-75.5
X169.81Y-84.5
X169.81Y-88.5
X170.19Y-122.0
X170.19Y-125.0
X172.25Y-75.5
X177.75Y-101.5
X177.81Y-122.0
X177.81Y-125.0
X180.19Y-70.0
X180.25Y-101.5
X181.5Y-122.5
X181.5Y-125.0
X182.5Y-66.0
X184.69Y-110.0
X185.0Y-66.0
X185.19Y-114.5
X186.0Y-75.0
X186.0Y-77.5
X186.69Y-119.5
X187.81Y-70.0
X192.31Y-110.0
X192.81Y-114.5
X193.0Y-66.2
X193.0Y-68.74
X193.0Y-71.28
X193.0Y-73.82
X194.31Y-119.5
X195.69Y-110.0
X198.19Y-100.0
X198.69Y-82.5
X199.5Y-114.25
X199.5Y-116.75
X200.0Y-74.75
X200.0Y-77.25
X203.31Y-110.0
X205.69Y-110.0
X205.81Y-100.0
X206.31Y-82.5
X206.5Y-93.75
X206.5Y-96.25
X208.19Y-100.0
X208.69Y-82.5
X213.31Y-110.0
X215.69Y-110.0
X215.81Y-100.0
X216.31Y-82.5
X217.0Y-114.25
X217.0Y-116.75
X218.69Y-82.5
X221.5Y-74.75
X221.5Y-77.25
X223.31Y-110.0
X225.0Y-102.75
X225.0Y-105.25
X225.69Y-110.0
X226.31Y-82.5
X227.0Y-91.69
X227.0Y-99.31
X228.5Y-82.5
X229.05Y-102.75
X229.05Y-105.25
X230.0Y-91.69
X230.0Y-99.31
X233.25Y-91.0
X233.31Y-110.0
X235.75Y-91.0
X236.12Y-82.5
T4
X167.69Y-68.5
X170.23Y-68.5
X172.77Y-68.5
X175.31Y-68.5
X179.5Y-74.68
X179.5Y-77.22
X179.5Y-79.76
X179.5Y-82.3
X179.5Y-84.84
X179.5Y-87.38
X179.5Y-89.92
X179.5Y-92.46
X179.5Y-95.0
X179.713Y-106.324
X179.713Y-108.864
X179.713Y-111.404
X179.713Y-113.944
X179.713Y-116.484
X179.713Y-119.024
X189.5Y-125.5
X192.0Y-125.5
X193.0Y-86.1
X193.2Y-106.3
X195.6Y-86.0
X195.6Y-106.3
X198.1Y-86.0
X198.2Y-106.3
X199.46Y-120.5
X199.92Y-70.5
X200.6Y-86.0
X200.7Y-106.3
X202.0Y-120.5
X202.46Y-70.5
X203.1Y-106.3
X203.2Y-86.0
X204.54Y-120.5
X205.0Y-70.5
X205.7Y-86.0
X205.8Y-106.4
X207.08Y-120.5
X207.54Y-70.5
X208.3Y-86.0
X208.3Y-106.4
X209.62Y-120.5
X210.08Y-70.5
X210.8Y-86.0
X210.9Y-106.4
X212.16Y-120.5
X212.62Y-70.5
X213.3Y-86.0
X213.4Y-106.4
X215.9Y-86.0
X215.9Y-106.4
X216.96Y-120.5
X218.4Y-86.0
X218.5Y-106.4
X219.5Y-120.5
X221.0Y-86.0
X221.0Y-106.4
X221.38Y-70.5
X222.04Y-120.5
X223.5Y-86.0
X223.92Y-70.5
X224.58Y-120.5
X226.0Y-86.0
X226.46Y-70.5
X227.12Y-120.5
X228.6Y-86.1
X229.0Y-70.5
X229.66Y-120.5
X231.1Y-86.1
X231.54Y-70.5
X234.08Y-70.5
X234.475Y-116.25
X234.475Y-118.75
T5
X196.75Y-92.25
X196.75Y-96.75
X203.25Y-92.25
X203.25Y-96.75
X216.25Y-92.25
X216.25Y-96.75
X222.75Y-92.25
X222.75Y-96.75
T6
X169.5Y-104.75
X169.5Y-117.25
X174.5Y-104.75
X174.5Y-117.25
M30
