%TF.GenerationSoftware,KiCad,Pcbnew,10.0.0*%
%TF.CreationDate,2026-04-11T13:35:44+05:30*%
%TF.ProjectId,SwarmCast,53776172-6d43-4617-9374-2e6b69636164,V1.0*%
%TF.SameCoordinates,Original*%
%TF.FileFunction,Legend,Bot*%
%TF.FilePolarity,Positive*%
%FSLAX46Y46*%
G04 Gerber Fmt 4.6, Leading zero omitted, Abs format (unit mm)*
G04 Created by KiCad (PCBNEW 10.0.0) date 2026-04-11 13:35:44*
%MOMM*%
%LPD*%
G01*
G04 APERTURE LIST*
%ADD10C,0.508000*%
%ADD11C,0.152400*%
%ADD12C,0.120000*%
G04 APERTURE END LIST*
D10*
X195623885Y-80272736D02*
X194172456Y-80272736D01*
X194898170Y-82812736D02*
X194898170Y-80272736D01*
X192358171Y-82691784D02*
X192600075Y-82812736D01*
X192600075Y-82812736D02*
X193083885Y-82812736D01*
X193083885Y-82812736D02*
X193325790Y-82691784D01*
X193325790Y-82691784D02*
X193446742Y-82449879D01*
X193446742Y-82449879D02*
X193446742Y-81482260D01*
X193446742Y-81482260D02*
X193325790Y-81240355D01*
X193325790Y-81240355D02*
X193083885Y-81119403D01*
X193083885Y-81119403D02*
X192600075Y-81119403D01*
X192600075Y-81119403D02*
X192358171Y-81240355D01*
X192358171Y-81240355D02*
X192237218Y-81482260D01*
X192237218Y-81482260D02*
X192237218Y-81724164D01*
X192237218Y-81724164D02*
X193446742Y-81966069D01*
X190060075Y-82812736D02*
X190060075Y-81482260D01*
X190060075Y-81482260D02*
X190181028Y-81240355D01*
X190181028Y-81240355D02*
X190422932Y-81119403D01*
X190422932Y-81119403D02*
X190906742Y-81119403D01*
X190906742Y-81119403D02*
X191148647Y-81240355D01*
X190060075Y-82691784D02*
X190301980Y-82812736D01*
X190301980Y-82812736D02*
X190906742Y-82812736D01*
X190906742Y-82812736D02*
X191148647Y-82691784D01*
X191148647Y-82691784D02*
X191269599Y-82449879D01*
X191269599Y-82449879D02*
X191269599Y-82207974D01*
X191269599Y-82207974D02*
X191148647Y-81966069D01*
X191148647Y-81966069D02*
X190906742Y-81845117D01*
X190906742Y-81845117D02*
X190301980Y-81845117D01*
X190301980Y-81845117D02*
X190060075Y-81724164D01*
X188850552Y-82812736D02*
X188850552Y-81119403D01*
X188850552Y-81361307D02*
X188729599Y-81240355D01*
X188729599Y-81240355D02*
X188487694Y-81119403D01*
X188487694Y-81119403D02*
X188124837Y-81119403D01*
X188124837Y-81119403D02*
X187882933Y-81240355D01*
X187882933Y-81240355D02*
X187761980Y-81482260D01*
X187761980Y-81482260D02*
X187761980Y-82812736D01*
X187761980Y-81482260D02*
X187641028Y-81240355D01*
X187641028Y-81240355D02*
X187399123Y-81119403D01*
X187399123Y-81119403D02*
X187036266Y-81119403D01*
X187036266Y-81119403D02*
X186794361Y-81240355D01*
X186794361Y-81240355D02*
X186673409Y-81482260D01*
X186673409Y-81482260D02*
X186673409Y-82812736D01*
X183649599Y-80514641D02*
X183528647Y-80393688D01*
X183528647Y-80393688D02*
X183286742Y-80272736D01*
X183286742Y-80272736D02*
X182681980Y-80272736D01*
X182681980Y-80272736D02*
X182440075Y-80393688D01*
X182440075Y-80393688D02*
X182319123Y-80514641D01*
X182319123Y-80514641D02*
X182198170Y-80756545D01*
X182198170Y-80756545D02*
X182198170Y-80998450D01*
X182198170Y-80998450D02*
X182319123Y-81361307D01*
X182319123Y-81361307D02*
X183770551Y-82812736D01*
X183770551Y-82812736D02*
X182198170Y-82812736D01*
D11*
X181209186Y-118654200D02*
X181354329Y-118605819D01*
X181354329Y-118605819D02*
X181596234Y-118605819D01*
X181596234Y-118605819D02*
X181692996Y-118654200D01*
X181692996Y-118654200D02*
X181741377Y-118702580D01*
X181741377Y-118702580D02*
X181789758Y-118799342D01*
X181789758Y-118799342D02*
X181789758Y-118896104D01*
X181789758Y-118896104D02*
X181741377Y-118992866D01*
X181741377Y-118992866D02*
X181692996Y-119041247D01*
X181692996Y-119041247D02*
X181596234Y-119089628D01*
X181596234Y-119089628D02*
X181402710Y-119138009D01*
X181402710Y-119138009D02*
X181305948Y-119186390D01*
X181305948Y-119186390D02*
X181257567Y-119234771D01*
X181257567Y-119234771D02*
X181209186Y-119331533D01*
X181209186Y-119331533D02*
X181209186Y-119428295D01*
X181209186Y-119428295D02*
X181257567Y-119525057D01*
X181257567Y-119525057D02*
X181305948Y-119573438D01*
X181305948Y-119573438D02*
X181402710Y-119621819D01*
X181402710Y-119621819D02*
X181644615Y-119621819D01*
X181644615Y-119621819D02*
X181789758Y-119573438D01*
X182805758Y-118702580D02*
X182757377Y-118654200D01*
X182757377Y-118654200D02*
X182612234Y-118605819D01*
X182612234Y-118605819D02*
X182515472Y-118605819D01*
X182515472Y-118605819D02*
X182370329Y-118654200D01*
X182370329Y-118654200D02*
X182273567Y-118750961D01*
X182273567Y-118750961D02*
X182225186Y-118847723D01*
X182225186Y-118847723D02*
X182176805Y-119041247D01*
X182176805Y-119041247D02*
X182176805Y-119186390D01*
X182176805Y-119186390D02*
X182225186Y-119379914D01*
X182225186Y-119379914D02*
X182273567Y-119476676D01*
X182273567Y-119476676D02*
X182370329Y-119573438D01*
X182370329Y-119573438D02*
X182515472Y-119621819D01*
X182515472Y-119621819D02*
X182612234Y-119621819D01*
X182612234Y-119621819D02*
X182757377Y-119573438D01*
X182757377Y-119573438D02*
X182805758Y-119525057D01*
X183724996Y-118605819D02*
X183241186Y-118605819D01*
X183241186Y-118605819D02*
X183241186Y-119621819D01*
X181073641Y-106978264D02*
X181412308Y-105962264D01*
X181412308Y-105962264D02*
X181750975Y-106978264D01*
X182670213Y-106059025D02*
X182621832Y-106010645D01*
X182621832Y-106010645D02*
X182476689Y-105962264D01*
X182476689Y-105962264D02*
X182379927Y-105962264D01*
X182379927Y-105962264D02*
X182234784Y-106010645D01*
X182234784Y-106010645D02*
X182138022Y-106107406D01*
X182138022Y-106107406D02*
X182089641Y-106204168D01*
X182089641Y-106204168D02*
X182041260Y-106397692D01*
X182041260Y-106397692D02*
X182041260Y-106542835D01*
X182041260Y-106542835D02*
X182089641Y-106736359D01*
X182089641Y-106736359D02*
X182138022Y-106833121D01*
X182138022Y-106833121D02*
X182234784Y-106929883D01*
X182234784Y-106929883D02*
X182379927Y-106978264D01*
X182379927Y-106978264D02*
X182476689Y-106978264D01*
X182476689Y-106978264D02*
X182621832Y-106929883D01*
X182621832Y-106929883D02*
X182670213Y-106881502D01*
X183686213Y-106059025D02*
X183637832Y-106010645D01*
X183637832Y-106010645D02*
X183492689Y-105962264D01*
X183492689Y-105962264D02*
X183395927Y-105962264D01*
X183395927Y-105962264D02*
X183250784Y-106010645D01*
X183250784Y-106010645D02*
X183154022Y-106107406D01*
X183154022Y-106107406D02*
X183105641Y-106204168D01*
X183105641Y-106204168D02*
X183057260Y-106397692D01*
X183057260Y-106397692D02*
X183057260Y-106542835D01*
X183057260Y-106542835D02*
X183105641Y-106736359D01*
X183105641Y-106736359D02*
X183154022Y-106833121D01*
X183154022Y-106833121D02*
X183250784Y-106929883D01*
X183250784Y-106929883D02*
X183395927Y-106978264D01*
X183395927Y-106978264D02*
X183492689Y-106978264D01*
X183492689Y-106978264D02*
X183637832Y-106929883D01*
X183637832Y-106929883D02*
X183686213Y-106881502D01*
X181787339Y-113673380D02*
X181738958Y-113625000D01*
X181738958Y-113625000D02*
X181593815Y-113576619D01*
X181593815Y-113576619D02*
X181497053Y-113576619D01*
X181497053Y-113576619D02*
X181351910Y-113625000D01*
X181351910Y-113625000D02*
X181255148Y-113721761D01*
X181255148Y-113721761D02*
X181206767Y-113818523D01*
X181206767Y-113818523D02*
X181158386Y-114012047D01*
X181158386Y-114012047D02*
X181158386Y-114157190D01*
X181158386Y-114157190D02*
X181206767Y-114350714D01*
X181206767Y-114350714D02*
X181255148Y-114447476D01*
X181255148Y-114447476D02*
X181351910Y-114544238D01*
X181351910Y-114544238D02*
X181497053Y-114592619D01*
X181497053Y-114592619D02*
X181593815Y-114592619D01*
X181593815Y-114592619D02*
X181738958Y-114544238D01*
X181738958Y-114544238D02*
X181787339Y-114495857D01*
X182706577Y-113576619D02*
X182222767Y-113576619D01*
X182222767Y-113576619D02*
X182222767Y-114592619D01*
X183045243Y-113576619D02*
X183045243Y-114592619D01*
X183625815Y-113576619D02*
X183190386Y-114157190D01*
X183625815Y-114592619D02*
X183045243Y-114012047D01*
X181206767Y-111036619D02*
X181206767Y-112052619D01*
X182416292Y-112101000D02*
X181545434Y-110794714D01*
X183093625Y-111568809D02*
X183238768Y-111520428D01*
X183238768Y-111520428D02*
X183287149Y-111472047D01*
X183287149Y-111472047D02*
X183335530Y-111375285D01*
X183335530Y-111375285D02*
X183335530Y-111230142D01*
X183335530Y-111230142D02*
X183287149Y-111133380D01*
X183287149Y-111133380D02*
X183238768Y-111085000D01*
X183238768Y-111085000D02*
X183142006Y-111036619D01*
X183142006Y-111036619D02*
X182754958Y-111036619D01*
X182754958Y-111036619D02*
X182754958Y-112052619D01*
X182754958Y-112052619D02*
X183093625Y-112052619D01*
X183093625Y-112052619D02*
X183190387Y-112004238D01*
X183190387Y-112004238D02*
X183238768Y-111955857D01*
X183238768Y-111955857D02*
X183287149Y-111859095D01*
X183287149Y-111859095D02*
X183287149Y-111762333D01*
X183287149Y-111762333D02*
X183238768Y-111665571D01*
X183238768Y-111665571D02*
X183190387Y-111617190D01*
X183190387Y-111617190D02*
X183093625Y-111568809D01*
X183093625Y-111568809D02*
X182754958Y-111568809D01*
X181209186Y-116139600D02*
X181354329Y-116091219D01*
X181354329Y-116091219D02*
X181596234Y-116091219D01*
X181596234Y-116091219D02*
X181692996Y-116139600D01*
X181692996Y-116139600D02*
X181741377Y-116187980D01*
X181741377Y-116187980D02*
X181789758Y-116284742D01*
X181789758Y-116284742D02*
X181789758Y-116381504D01*
X181789758Y-116381504D02*
X181741377Y-116478266D01*
X181741377Y-116478266D02*
X181692996Y-116526647D01*
X181692996Y-116526647D02*
X181596234Y-116575028D01*
X181596234Y-116575028D02*
X181402710Y-116623409D01*
X181402710Y-116623409D02*
X181305948Y-116671790D01*
X181305948Y-116671790D02*
X181257567Y-116720171D01*
X181257567Y-116720171D02*
X181209186Y-116816933D01*
X181209186Y-116816933D02*
X181209186Y-116913695D01*
X181209186Y-116913695D02*
X181257567Y-117010457D01*
X181257567Y-117010457D02*
X181305948Y-117058838D01*
X181305948Y-117058838D02*
X181402710Y-117107219D01*
X181402710Y-117107219D02*
X181644615Y-117107219D01*
X181644615Y-117107219D02*
X181789758Y-117058838D01*
X182225186Y-116091219D02*
X182225186Y-117107219D01*
X182225186Y-117107219D02*
X182467091Y-117107219D01*
X182467091Y-117107219D02*
X182612234Y-117058838D01*
X182612234Y-117058838D02*
X182708996Y-116962076D01*
X182708996Y-116962076D02*
X182757377Y-116865314D01*
X182757377Y-116865314D02*
X182805758Y-116671790D01*
X182805758Y-116671790D02*
X182805758Y-116526647D01*
X182805758Y-116526647D02*
X182757377Y-116333123D01*
X182757377Y-116333123D02*
X182708996Y-116236361D01*
X182708996Y-116236361D02*
X182612234Y-116139600D01*
X182612234Y-116139600D02*
X182467091Y-116091219D01*
X182467091Y-116091219D02*
X182225186Y-116091219D01*
X183192805Y-116381504D02*
X183676615Y-116381504D01*
X183096043Y-116091219D02*
X183434710Y-117107219D01*
X183434710Y-117107219D02*
X183773377Y-116091219D01*
X181662758Y-109388038D02*
X181565996Y-109436419D01*
X181565996Y-109436419D02*
X181420853Y-109436419D01*
X181420853Y-109436419D02*
X181275710Y-109388038D01*
X181275710Y-109388038D02*
X181178948Y-109291276D01*
X181178948Y-109291276D02*
X181130567Y-109194514D01*
X181130567Y-109194514D02*
X181082186Y-109000990D01*
X181082186Y-109000990D02*
X181082186Y-108855847D01*
X181082186Y-108855847D02*
X181130567Y-108662323D01*
X181130567Y-108662323D02*
X181178948Y-108565561D01*
X181178948Y-108565561D02*
X181275710Y-108468800D01*
X181275710Y-108468800D02*
X181420853Y-108420419D01*
X181420853Y-108420419D02*
X181517615Y-108420419D01*
X181517615Y-108420419D02*
X181662758Y-108468800D01*
X181662758Y-108468800D02*
X181711139Y-108517180D01*
X181711139Y-108517180D02*
X181711139Y-108855847D01*
X181711139Y-108855847D02*
X181517615Y-108855847D01*
X182146567Y-108420419D02*
X182146567Y-109436419D01*
X182146567Y-109436419D02*
X182727139Y-108420419D01*
X182727139Y-108420419D02*
X182727139Y-109436419D01*
X183210948Y-108420419D02*
X183210948Y-109436419D01*
X183210948Y-109436419D02*
X183452853Y-109436419D01*
X183452853Y-109436419D02*
X183597996Y-109388038D01*
X183597996Y-109388038D02*
X183694758Y-109291276D01*
X183694758Y-109291276D02*
X183743139Y-109194514D01*
X183743139Y-109194514D02*
X183791520Y-109000990D01*
X183791520Y-109000990D02*
X183791520Y-108855847D01*
X183791520Y-108855847D02*
X183743139Y-108662323D01*
X183743139Y-108662323D02*
X183694758Y-108565561D01*
X183694758Y-108565561D02*
X183597996Y-108468800D01*
X183597996Y-108468800D02*
X183452853Y-108420419D01*
X183452853Y-108420419D02*
X183210948Y-108420419D01*
X221361095Y-87440150D02*
X220345095Y-87440150D01*
X220345095Y-87440150D02*
X220345095Y-87682055D01*
X220345095Y-87682055D02*
X220393476Y-87827198D01*
X220393476Y-87827198D02*
X220490238Y-87923960D01*
X220490238Y-87923960D02*
X220587000Y-87972341D01*
X220587000Y-87972341D02*
X220780524Y-88020722D01*
X220780524Y-88020722D02*
X220925667Y-88020722D01*
X220925667Y-88020722D02*
X221119191Y-87972341D01*
X221119191Y-87972341D02*
X221215953Y-87923960D01*
X221215953Y-87923960D02*
X221312715Y-87827198D01*
X221312715Y-87827198D02*
X221361095Y-87682055D01*
X221361095Y-87682055D02*
X221361095Y-87440150D01*
X221361095Y-88988341D02*
X221361095Y-88407769D01*
X221361095Y-88698055D02*
X220345095Y-88698055D01*
X220345095Y-88698055D02*
X220490238Y-88601293D01*
X220490238Y-88601293D02*
X220587000Y-88504531D01*
X220587000Y-88504531D02*
X220635381Y-88407769D01*
X220345095Y-89327007D02*
X220345095Y-89955960D01*
X220345095Y-89955960D02*
X220732143Y-89617293D01*
X220732143Y-89617293D02*
X220732143Y-89762436D01*
X220732143Y-89762436D02*
X220780524Y-89859198D01*
X220780524Y-89859198D02*
X220828905Y-89907579D01*
X220828905Y-89907579D02*
X220925667Y-89955960D01*
X220925667Y-89955960D02*
X221167572Y-89955960D01*
X221167572Y-89955960D02*
X221264334Y-89907579D01*
X221264334Y-89907579D02*
X221312715Y-89859198D01*
X221312715Y-89859198D02*
X221361095Y-89762436D01*
X221361095Y-89762436D02*
X221361095Y-89472150D01*
X221361095Y-89472150D02*
X221312715Y-89375388D01*
X221312715Y-89375388D02*
X221264334Y-89327007D01*
X203260810Y-103191769D02*
X203260810Y-103675579D01*
X203551095Y-103095007D02*
X202535095Y-103433674D01*
X202535095Y-103433674D02*
X203551095Y-103772341D01*
X202535095Y-104546436D02*
X202535095Y-104352912D01*
X202535095Y-104352912D02*
X202583476Y-104256150D01*
X202583476Y-104256150D02*
X202631857Y-104207769D01*
X202631857Y-104207769D02*
X202777000Y-104111007D01*
X202777000Y-104111007D02*
X202970524Y-104062626D01*
X202970524Y-104062626D02*
X203357572Y-104062626D01*
X203357572Y-104062626D02*
X203454334Y-104111007D01*
X203454334Y-104111007D02*
X203502715Y-104159388D01*
X203502715Y-104159388D02*
X203551095Y-104256150D01*
X203551095Y-104256150D02*
X203551095Y-104449674D01*
X203551095Y-104449674D02*
X203502715Y-104546436D01*
X203502715Y-104546436D02*
X203454334Y-104594817D01*
X203454334Y-104594817D02*
X203357572Y-104643198D01*
X203357572Y-104643198D02*
X203115667Y-104643198D01*
X203115667Y-104643198D02*
X203018905Y-104594817D01*
X203018905Y-104594817D02*
X202970524Y-104546436D01*
X202970524Y-104546436D02*
X202922143Y-104449674D01*
X202922143Y-104449674D02*
X202922143Y-104256150D01*
X202922143Y-104256150D02*
X202970524Y-104159388D01*
X202970524Y-104159388D02*
X203018905Y-104111007D01*
X203018905Y-104111007D02*
X203115667Y-104062626D01*
X198270810Y-103391769D02*
X198270810Y-103875579D01*
X198561095Y-103295007D02*
X197545095Y-103633674D01*
X197545095Y-103633674D02*
X198561095Y-103972341D01*
X198561095Y-104843198D02*
X198561095Y-104262626D01*
X198561095Y-104552912D02*
X197545095Y-104552912D01*
X197545095Y-104552912D02*
X197690238Y-104456150D01*
X197690238Y-104456150D02*
X197787000Y-104359388D01*
X197787000Y-104359388D02*
X197835381Y-104262626D01*
X192393476Y-87772341D02*
X192345095Y-87675579D01*
X192345095Y-87675579D02*
X192345095Y-87530436D01*
X192345095Y-87530436D02*
X192393476Y-87385293D01*
X192393476Y-87385293D02*
X192490238Y-87288531D01*
X192490238Y-87288531D02*
X192587000Y-87240150D01*
X192587000Y-87240150D02*
X192780524Y-87191769D01*
X192780524Y-87191769D02*
X192925667Y-87191769D01*
X192925667Y-87191769D02*
X193119191Y-87240150D01*
X193119191Y-87240150D02*
X193215953Y-87288531D01*
X193215953Y-87288531D02*
X193312715Y-87385293D01*
X193312715Y-87385293D02*
X193361095Y-87530436D01*
X193361095Y-87530436D02*
X193361095Y-87627198D01*
X193361095Y-87627198D02*
X193312715Y-87772341D01*
X193312715Y-87772341D02*
X193264334Y-87820722D01*
X193264334Y-87820722D02*
X192925667Y-87820722D01*
X192925667Y-87820722D02*
X192925667Y-87627198D01*
X193361095Y-88256150D02*
X192345095Y-88256150D01*
X192345095Y-88256150D02*
X193361095Y-88836722D01*
X193361095Y-88836722D02*
X192345095Y-88836722D01*
X193361095Y-89320531D02*
X192345095Y-89320531D01*
X192345095Y-89320531D02*
X192345095Y-89562436D01*
X192345095Y-89562436D02*
X192393476Y-89707579D01*
X192393476Y-89707579D02*
X192490238Y-89804341D01*
X192490238Y-89804341D02*
X192587000Y-89852722D01*
X192587000Y-89852722D02*
X192780524Y-89901103D01*
X192780524Y-89901103D02*
X192925667Y-89901103D01*
X192925667Y-89901103D02*
X193119191Y-89852722D01*
X193119191Y-89852722D02*
X193215953Y-89804341D01*
X193215953Y-89804341D02*
X193312715Y-89707579D01*
X193312715Y-89707579D02*
X193361095Y-89562436D01*
X193361095Y-89562436D02*
X193361095Y-89320531D01*
X213470810Y-102791769D02*
X213470810Y-103275579D01*
X213761095Y-102695007D02*
X212745095Y-103033674D01*
X212745095Y-103033674D02*
X213761095Y-103372341D01*
X213761095Y-104243198D02*
X213761095Y-103662626D01*
X213761095Y-103952912D02*
X212745095Y-103952912D01*
X212745095Y-103952912D02*
X212890238Y-103856150D01*
X212890238Y-103856150D02*
X212987000Y-103759388D01*
X212987000Y-103759388D02*
X213035381Y-103662626D01*
X212745095Y-104872150D02*
X212745095Y-104968912D01*
X212745095Y-104968912D02*
X212793476Y-105065674D01*
X212793476Y-105065674D02*
X212841857Y-105114055D01*
X212841857Y-105114055D02*
X212938619Y-105162436D01*
X212938619Y-105162436D02*
X213132143Y-105210817D01*
X213132143Y-105210817D02*
X213374048Y-105210817D01*
X213374048Y-105210817D02*
X213567572Y-105162436D01*
X213567572Y-105162436D02*
X213664334Y-105114055D01*
X213664334Y-105114055D02*
X213712715Y-105065674D01*
X213712715Y-105065674D02*
X213761095Y-104968912D01*
X213761095Y-104968912D02*
X213761095Y-104872150D01*
X213761095Y-104872150D02*
X213712715Y-104775388D01*
X213712715Y-104775388D02*
X213664334Y-104727007D01*
X213664334Y-104727007D02*
X213567572Y-104678626D01*
X213567572Y-104678626D02*
X213374048Y-104630245D01*
X213374048Y-104630245D02*
X213132143Y-104630245D01*
X213132143Y-104630245D02*
X212938619Y-104678626D01*
X212938619Y-104678626D02*
X212841857Y-104727007D01*
X212841857Y-104727007D02*
X212793476Y-104775388D01*
X212793476Y-104775388D02*
X212745095Y-104872150D01*
X193312715Y-102591769D02*
X193361095Y-102736912D01*
X193361095Y-102736912D02*
X193361095Y-102978817D01*
X193361095Y-102978817D02*
X193312715Y-103075579D01*
X193312715Y-103075579D02*
X193264334Y-103123960D01*
X193264334Y-103123960D02*
X193167572Y-103172341D01*
X193167572Y-103172341D02*
X193070810Y-103172341D01*
X193070810Y-103172341D02*
X192974048Y-103123960D01*
X192974048Y-103123960D02*
X192925667Y-103075579D01*
X192925667Y-103075579D02*
X192877286Y-102978817D01*
X192877286Y-102978817D02*
X192828905Y-102785293D01*
X192828905Y-102785293D02*
X192780524Y-102688531D01*
X192780524Y-102688531D02*
X192732143Y-102640150D01*
X192732143Y-102640150D02*
X192635381Y-102591769D01*
X192635381Y-102591769D02*
X192538619Y-102591769D01*
X192538619Y-102591769D02*
X192441857Y-102640150D01*
X192441857Y-102640150D02*
X192393476Y-102688531D01*
X192393476Y-102688531D02*
X192345095Y-102785293D01*
X192345095Y-102785293D02*
X192345095Y-103027198D01*
X192345095Y-103027198D02*
X192393476Y-103172341D01*
X193264334Y-104188341D02*
X193312715Y-104139960D01*
X193312715Y-104139960D02*
X193361095Y-103994817D01*
X193361095Y-103994817D02*
X193361095Y-103898055D01*
X193361095Y-103898055D02*
X193312715Y-103752912D01*
X193312715Y-103752912D02*
X193215953Y-103656150D01*
X193215953Y-103656150D02*
X193119191Y-103607769D01*
X193119191Y-103607769D02*
X192925667Y-103559388D01*
X192925667Y-103559388D02*
X192780524Y-103559388D01*
X192780524Y-103559388D02*
X192587000Y-103607769D01*
X192587000Y-103607769D02*
X192490238Y-103656150D01*
X192490238Y-103656150D02*
X192393476Y-103752912D01*
X192393476Y-103752912D02*
X192345095Y-103898055D01*
X192345095Y-103898055D02*
X192345095Y-103994817D01*
X192345095Y-103994817D02*
X192393476Y-104139960D01*
X192393476Y-104139960D02*
X192441857Y-104188341D01*
X193361095Y-105107579D02*
X193361095Y-104623769D01*
X193361095Y-104623769D02*
X192345095Y-104623769D01*
X222993476Y-87972341D02*
X222945095Y-87875579D01*
X222945095Y-87875579D02*
X222945095Y-87730436D01*
X222945095Y-87730436D02*
X222993476Y-87585293D01*
X222993476Y-87585293D02*
X223090238Y-87488531D01*
X223090238Y-87488531D02*
X223187000Y-87440150D01*
X223187000Y-87440150D02*
X223380524Y-87391769D01*
X223380524Y-87391769D02*
X223525667Y-87391769D01*
X223525667Y-87391769D02*
X223719191Y-87440150D01*
X223719191Y-87440150D02*
X223815953Y-87488531D01*
X223815953Y-87488531D02*
X223912715Y-87585293D01*
X223912715Y-87585293D02*
X223961095Y-87730436D01*
X223961095Y-87730436D02*
X223961095Y-87827198D01*
X223961095Y-87827198D02*
X223912715Y-87972341D01*
X223912715Y-87972341D02*
X223864334Y-88020722D01*
X223864334Y-88020722D02*
X223525667Y-88020722D01*
X223525667Y-88020722D02*
X223525667Y-87827198D01*
X223961095Y-88456150D02*
X222945095Y-88456150D01*
X222945095Y-88456150D02*
X223961095Y-89036722D01*
X223961095Y-89036722D02*
X222945095Y-89036722D01*
X223961095Y-89520531D02*
X222945095Y-89520531D01*
X222945095Y-89520531D02*
X222945095Y-89762436D01*
X222945095Y-89762436D02*
X222993476Y-89907579D01*
X222993476Y-89907579D02*
X223090238Y-90004341D01*
X223090238Y-90004341D02*
X223187000Y-90052722D01*
X223187000Y-90052722D02*
X223380524Y-90101103D01*
X223380524Y-90101103D02*
X223525667Y-90101103D01*
X223525667Y-90101103D02*
X223719191Y-90052722D01*
X223719191Y-90052722D02*
X223815953Y-90004341D01*
X223815953Y-90004341D02*
X223912715Y-89907579D01*
X223912715Y-89907579D02*
X223961095Y-89762436D01*
X223961095Y-89762436D02*
X223961095Y-89520531D01*
X200880810Y-103191769D02*
X200880810Y-103675579D01*
X201171095Y-103095007D02*
X200155095Y-103433674D01*
X200155095Y-103433674D02*
X201171095Y-103772341D01*
X200251857Y-104062626D02*
X200203476Y-104111007D01*
X200203476Y-104111007D02*
X200155095Y-104207769D01*
X200155095Y-104207769D02*
X200155095Y-104449674D01*
X200155095Y-104449674D02*
X200203476Y-104546436D01*
X200203476Y-104546436D02*
X200251857Y-104594817D01*
X200251857Y-104594817D02*
X200348619Y-104643198D01*
X200348619Y-104643198D02*
X200445381Y-104643198D01*
X200445381Y-104643198D02*
X200590524Y-104594817D01*
X200590524Y-104594817D02*
X201171095Y-104014245D01*
X201171095Y-104014245D02*
X201171095Y-104643198D01*
X215345095Y-102440150D02*
X216167572Y-102440150D01*
X216167572Y-102440150D02*
X216264334Y-102488531D01*
X216264334Y-102488531D02*
X216312715Y-102536912D01*
X216312715Y-102536912D02*
X216361095Y-102633674D01*
X216361095Y-102633674D02*
X216361095Y-102827198D01*
X216361095Y-102827198D02*
X216312715Y-102923960D01*
X216312715Y-102923960D02*
X216264334Y-102972341D01*
X216264334Y-102972341D02*
X216167572Y-103020722D01*
X216167572Y-103020722D02*
X215345095Y-103020722D01*
X216312715Y-103456150D02*
X216361095Y-103601293D01*
X216361095Y-103601293D02*
X216361095Y-103843198D01*
X216361095Y-103843198D02*
X216312715Y-103939960D01*
X216312715Y-103939960D02*
X216264334Y-103988341D01*
X216264334Y-103988341D02*
X216167572Y-104036722D01*
X216167572Y-104036722D02*
X216070810Y-104036722D01*
X216070810Y-104036722D02*
X215974048Y-103988341D01*
X215974048Y-103988341D02*
X215925667Y-103939960D01*
X215925667Y-103939960D02*
X215877286Y-103843198D01*
X215877286Y-103843198D02*
X215828905Y-103649674D01*
X215828905Y-103649674D02*
X215780524Y-103552912D01*
X215780524Y-103552912D02*
X215732143Y-103504531D01*
X215732143Y-103504531D02*
X215635381Y-103456150D01*
X215635381Y-103456150D02*
X215538619Y-103456150D01*
X215538619Y-103456150D02*
X215441857Y-103504531D01*
X215441857Y-103504531D02*
X215393476Y-103552912D01*
X215393476Y-103552912D02*
X215345095Y-103649674D01*
X215345095Y-103649674D02*
X215345095Y-103891579D01*
X215345095Y-103891579D02*
X215393476Y-104036722D01*
X215828905Y-104810817D02*
X215877286Y-104955960D01*
X215877286Y-104955960D02*
X215925667Y-105004341D01*
X215925667Y-105004341D02*
X216022429Y-105052722D01*
X216022429Y-105052722D02*
X216167572Y-105052722D01*
X216167572Y-105052722D02*
X216264334Y-105004341D01*
X216264334Y-105004341D02*
X216312715Y-104955960D01*
X216312715Y-104955960D02*
X216361095Y-104859198D01*
X216361095Y-104859198D02*
X216361095Y-104472150D01*
X216361095Y-104472150D02*
X215345095Y-104472150D01*
X215345095Y-104472150D02*
X215345095Y-104810817D01*
X215345095Y-104810817D02*
X215393476Y-104907579D01*
X215393476Y-104907579D02*
X215441857Y-104955960D01*
X215441857Y-104955960D02*
X215538619Y-105004341D01*
X215538619Y-105004341D02*
X215635381Y-105004341D01*
X215635381Y-105004341D02*
X215732143Y-104955960D01*
X215732143Y-104955960D02*
X215780524Y-104907579D01*
X215780524Y-104907579D02*
X215828905Y-104810817D01*
X215828905Y-104810817D02*
X215828905Y-104472150D01*
X198561095Y-87820722D02*
X198077286Y-87482055D01*
X198561095Y-87240150D02*
X197545095Y-87240150D01*
X197545095Y-87240150D02*
X197545095Y-87627198D01*
X197545095Y-87627198D02*
X197593476Y-87723960D01*
X197593476Y-87723960D02*
X197641857Y-87772341D01*
X197641857Y-87772341D02*
X197738619Y-87820722D01*
X197738619Y-87820722D02*
X197883762Y-87820722D01*
X197883762Y-87820722D02*
X197980524Y-87772341D01*
X197980524Y-87772341D02*
X198028905Y-87723960D01*
X198028905Y-87723960D02*
X198077286Y-87627198D01*
X198077286Y-87627198D02*
X198077286Y-87240150D01*
X197545095Y-88159388D02*
X198561095Y-88836722D01*
X197545095Y-88836722D02*
X198561095Y-88159388D01*
X218761095Y-87440150D02*
X217745095Y-87440150D01*
X217745095Y-87440150D02*
X217745095Y-87682055D01*
X217745095Y-87682055D02*
X217793476Y-87827198D01*
X217793476Y-87827198D02*
X217890238Y-87923960D01*
X217890238Y-87923960D02*
X217987000Y-87972341D01*
X217987000Y-87972341D02*
X218180524Y-88020722D01*
X218180524Y-88020722D02*
X218325667Y-88020722D01*
X218325667Y-88020722D02*
X218519191Y-87972341D01*
X218519191Y-87972341D02*
X218615953Y-87923960D01*
X218615953Y-87923960D02*
X218712715Y-87827198D01*
X218712715Y-87827198D02*
X218761095Y-87682055D01*
X218761095Y-87682055D02*
X218761095Y-87440150D01*
X218761095Y-88988341D02*
X218761095Y-88407769D01*
X218761095Y-88698055D02*
X217745095Y-88698055D01*
X217745095Y-88698055D02*
X217890238Y-88601293D01*
X217890238Y-88601293D02*
X217987000Y-88504531D01*
X217987000Y-88504531D02*
X218035381Y-88407769D01*
X218083762Y-89859198D02*
X218761095Y-89859198D01*
X217696715Y-89617293D02*
X218422429Y-89375388D01*
X218422429Y-89375388D02*
X218422429Y-90004341D01*
X210940810Y-103391769D02*
X210940810Y-103875579D01*
X211231095Y-103295007D02*
X210215095Y-103633674D01*
X210215095Y-103633674D02*
X211231095Y-103972341D01*
X211231095Y-104359388D02*
X211231095Y-104552912D01*
X211231095Y-104552912D02*
X211182715Y-104649674D01*
X211182715Y-104649674D02*
X211134334Y-104698055D01*
X211134334Y-104698055D02*
X210989191Y-104794817D01*
X210989191Y-104794817D02*
X210795667Y-104843198D01*
X210795667Y-104843198D02*
X210408619Y-104843198D01*
X210408619Y-104843198D02*
X210311857Y-104794817D01*
X210311857Y-104794817D02*
X210263476Y-104746436D01*
X210263476Y-104746436D02*
X210215095Y-104649674D01*
X210215095Y-104649674D02*
X210215095Y-104456150D01*
X210215095Y-104456150D02*
X210263476Y-104359388D01*
X210263476Y-104359388D02*
X210311857Y-104311007D01*
X210311857Y-104311007D02*
X210408619Y-104262626D01*
X210408619Y-104262626D02*
X210650524Y-104262626D01*
X210650524Y-104262626D02*
X210747286Y-104311007D01*
X210747286Y-104311007D02*
X210795667Y-104359388D01*
X210795667Y-104359388D02*
X210844048Y-104456150D01*
X210844048Y-104456150D02*
X210844048Y-104649674D01*
X210844048Y-104649674D02*
X210795667Y-104746436D01*
X210795667Y-104746436D02*
X210747286Y-104794817D01*
X210747286Y-104794817D02*
X210650524Y-104843198D01*
X220888905Y-102778817D02*
X220937286Y-102923960D01*
X220937286Y-102923960D02*
X220985667Y-102972341D01*
X220985667Y-102972341D02*
X221082429Y-103020722D01*
X221082429Y-103020722D02*
X221227572Y-103020722D01*
X221227572Y-103020722D02*
X221324334Y-102972341D01*
X221324334Y-102972341D02*
X221372715Y-102923960D01*
X221372715Y-102923960D02*
X221421095Y-102827198D01*
X221421095Y-102827198D02*
X221421095Y-102440150D01*
X221421095Y-102440150D02*
X220405095Y-102440150D01*
X220405095Y-102440150D02*
X220405095Y-102778817D01*
X220405095Y-102778817D02*
X220453476Y-102875579D01*
X220453476Y-102875579D02*
X220501857Y-102923960D01*
X220501857Y-102923960D02*
X220598619Y-102972341D01*
X220598619Y-102972341D02*
X220695381Y-102972341D01*
X220695381Y-102972341D02*
X220792143Y-102923960D01*
X220792143Y-102923960D02*
X220840524Y-102875579D01*
X220840524Y-102875579D02*
X220888905Y-102778817D01*
X220888905Y-102778817D02*
X220888905Y-102440150D01*
X221130810Y-103407769D02*
X221130810Y-103891579D01*
X221421095Y-103311007D02*
X220405095Y-103649674D01*
X220405095Y-103649674D02*
X221421095Y-103988341D01*
X220405095Y-104181864D02*
X220405095Y-104762436D01*
X221421095Y-104472150D02*
X220405095Y-104472150D01*
X206042715Y-87191769D02*
X206091095Y-87336912D01*
X206091095Y-87336912D02*
X206091095Y-87578817D01*
X206091095Y-87578817D02*
X206042715Y-87675579D01*
X206042715Y-87675579D02*
X205994334Y-87723960D01*
X205994334Y-87723960D02*
X205897572Y-87772341D01*
X205897572Y-87772341D02*
X205800810Y-87772341D01*
X205800810Y-87772341D02*
X205704048Y-87723960D01*
X205704048Y-87723960D02*
X205655667Y-87675579D01*
X205655667Y-87675579D02*
X205607286Y-87578817D01*
X205607286Y-87578817D02*
X205558905Y-87385293D01*
X205558905Y-87385293D02*
X205510524Y-87288531D01*
X205510524Y-87288531D02*
X205462143Y-87240150D01*
X205462143Y-87240150D02*
X205365381Y-87191769D01*
X205365381Y-87191769D02*
X205268619Y-87191769D01*
X205268619Y-87191769D02*
X205171857Y-87240150D01*
X205171857Y-87240150D02*
X205123476Y-87288531D01*
X205123476Y-87288531D02*
X205075095Y-87385293D01*
X205075095Y-87385293D02*
X205075095Y-87627198D01*
X205075095Y-87627198D02*
X205123476Y-87772341D01*
X205994334Y-88788341D02*
X206042715Y-88739960D01*
X206042715Y-88739960D02*
X206091095Y-88594817D01*
X206091095Y-88594817D02*
X206091095Y-88498055D01*
X206091095Y-88498055D02*
X206042715Y-88352912D01*
X206042715Y-88352912D02*
X205945953Y-88256150D01*
X205945953Y-88256150D02*
X205849191Y-88207769D01*
X205849191Y-88207769D02*
X205655667Y-88159388D01*
X205655667Y-88159388D02*
X205510524Y-88159388D01*
X205510524Y-88159388D02*
X205317000Y-88207769D01*
X205317000Y-88207769D02*
X205220238Y-88256150D01*
X205220238Y-88256150D02*
X205123476Y-88352912D01*
X205123476Y-88352912D02*
X205075095Y-88498055D01*
X205075095Y-88498055D02*
X205075095Y-88594817D01*
X205075095Y-88594817D02*
X205123476Y-88739960D01*
X205123476Y-88739960D02*
X205171857Y-88788341D01*
X206091095Y-89223769D02*
X205075095Y-89223769D01*
X206091095Y-89804341D02*
X205510524Y-89368912D01*
X205075095Y-89804341D02*
X205655667Y-89223769D01*
X216421095Y-87240150D02*
X215405095Y-87240150D01*
X215405095Y-87240150D02*
X215405095Y-87482055D01*
X215405095Y-87482055D02*
X215453476Y-87627198D01*
X215453476Y-87627198D02*
X215550238Y-87723960D01*
X215550238Y-87723960D02*
X215647000Y-87772341D01*
X215647000Y-87772341D02*
X215840524Y-87820722D01*
X215840524Y-87820722D02*
X215985667Y-87820722D01*
X215985667Y-87820722D02*
X216179191Y-87772341D01*
X216179191Y-87772341D02*
X216275953Y-87723960D01*
X216275953Y-87723960D02*
X216372715Y-87627198D01*
X216372715Y-87627198D02*
X216421095Y-87482055D01*
X216421095Y-87482055D02*
X216421095Y-87240150D01*
X216421095Y-88788341D02*
X216421095Y-88207769D01*
X216421095Y-88498055D02*
X215405095Y-88498055D01*
X215405095Y-88498055D02*
X215550238Y-88401293D01*
X215550238Y-88401293D02*
X215647000Y-88304531D01*
X215647000Y-88304531D02*
X215695381Y-88207769D01*
X215405095Y-89707579D02*
X215405095Y-89223769D01*
X215405095Y-89223769D02*
X215888905Y-89175388D01*
X215888905Y-89175388D02*
X215840524Y-89223769D01*
X215840524Y-89223769D02*
X215792143Y-89320531D01*
X215792143Y-89320531D02*
X215792143Y-89562436D01*
X215792143Y-89562436D02*
X215840524Y-89659198D01*
X215840524Y-89659198D02*
X215888905Y-89707579D01*
X215888905Y-89707579D02*
X215985667Y-89755960D01*
X215985667Y-89755960D02*
X216227572Y-89755960D01*
X216227572Y-89755960D02*
X216324334Y-89707579D01*
X216324334Y-89707579D02*
X216372715Y-89659198D01*
X216372715Y-89659198D02*
X216421095Y-89562436D01*
X216421095Y-89562436D02*
X216421095Y-89320531D01*
X216421095Y-89320531D02*
X216372715Y-89223769D01*
X216372715Y-89223769D02*
X216324334Y-89175388D01*
X225645095Y-87343388D02*
X225645095Y-87972341D01*
X225645095Y-87972341D02*
X226032143Y-87633674D01*
X226032143Y-87633674D02*
X226032143Y-87778817D01*
X226032143Y-87778817D02*
X226080524Y-87875579D01*
X226080524Y-87875579D02*
X226128905Y-87923960D01*
X226128905Y-87923960D02*
X226225667Y-87972341D01*
X226225667Y-87972341D02*
X226467572Y-87972341D01*
X226467572Y-87972341D02*
X226564334Y-87923960D01*
X226564334Y-87923960D02*
X226612715Y-87875579D01*
X226612715Y-87875579D02*
X226661095Y-87778817D01*
X226661095Y-87778817D02*
X226661095Y-87488531D01*
X226661095Y-87488531D02*
X226612715Y-87391769D01*
X226612715Y-87391769D02*
X226564334Y-87343388D01*
X225645095Y-88262626D02*
X226661095Y-88601293D01*
X226661095Y-88601293D02*
X225645095Y-88939960D01*
X225645095Y-89181864D02*
X225645095Y-89810817D01*
X225645095Y-89810817D02*
X226032143Y-89472150D01*
X226032143Y-89472150D02*
X226032143Y-89617293D01*
X226032143Y-89617293D02*
X226080524Y-89714055D01*
X226080524Y-89714055D02*
X226128905Y-89762436D01*
X226128905Y-89762436D02*
X226225667Y-89810817D01*
X226225667Y-89810817D02*
X226467572Y-89810817D01*
X226467572Y-89810817D02*
X226564334Y-89762436D01*
X226564334Y-89762436D02*
X226612715Y-89714055D01*
X226612715Y-89714055D02*
X226661095Y-89617293D01*
X226661095Y-89617293D02*
X226661095Y-89327007D01*
X226661095Y-89327007D02*
X226612715Y-89230245D01*
X226612715Y-89230245D02*
X226564334Y-89181864D01*
X231531095Y-88220722D02*
X231047286Y-87882055D01*
X231531095Y-87640150D02*
X230515095Y-87640150D01*
X230515095Y-87640150D02*
X230515095Y-88027198D01*
X230515095Y-88027198D02*
X230563476Y-88123960D01*
X230563476Y-88123960D02*
X230611857Y-88172341D01*
X230611857Y-88172341D02*
X230708619Y-88220722D01*
X230708619Y-88220722D02*
X230853762Y-88220722D01*
X230853762Y-88220722D02*
X230950524Y-88172341D01*
X230950524Y-88172341D02*
X230998905Y-88123960D01*
X230998905Y-88123960D02*
X231047286Y-88027198D01*
X231047286Y-88027198D02*
X231047286Y-87640150D01*
X231482715Y-88607769D02*
X231531095Y-88752912D01*
X231531095Y-88752912D02*
X231531095Y-88994817D01*
X231531095Y-88994817D02*
X231482715Y-89091579D01*
X231482715Y-89091579D02*
X231434334Y-89139960D01*
X231434334Y-89139960D02*
X231337572Y-89188341D01*
X231337572Y-89188341D02*
X231240810Y-89188341D01*
X231240810Y-89188341D02*
X231144048Y-89139960D01*
X231144048Y-89139960D02*
X231095667Y-89091579D01*
X231095667Y-89091579D02*
X231047286Y-88994817D01*
X231047286Y-88994817D02*
X230998905Y-88801293D01*
X230998905Y-88801293D02*
X230950524Y-88704531D01*
X230950524Y-88704531D02*
X230902143Y-88656150D01*
X230902143Y-88656150D02*
X230805381Y-88607769D01*
X230805381Y-88607769D02*
X230708619Y-88607769D01*
X230708619Y-88607769D02*
X230611857Y-88656150D01*
X230611857Y-88656150D02*
X230563476Y-88704531D01*
X230563476Y-88704531D02*
X230515095Y-88801293D01*
X230515095Y-88801293D02*
X230515095Y-89043198D01*
X230515095Y-89043198D02*
X230563476Y-89188341D01*
X230515095Y-89478626D02*
X230515095Y-90059198D01*
X231531095Y-89768912D02*
X230515095Y-89768912D01*
X194945095Y-87295007D02*
X194945095Y-87875579D01*
X195961095Y-87585293D02*
X194945095Y-87585293D01*
X194945095Y-88117483D02*
X195961095Y-88794817D01*
X194945095Y-88794817D02*
X195961095Y-88117483D01*
X218428905Y-103040150D02*
X218428905Y-103378817D01*
X218961095Y-103523960D02*
X218961095Y-103040150D01*
X218961095Y-103040150D02*
X217945095Y-103040150D01*
X217945095Y-103040150D02*
X217945095Y-103523960D01*
X218961095Y-103959388D02*
X217945095Y-103959388D01*
X217945095Y-103959388D02*
X218961095Y-104539960D01*
X218961095Y-104539960D02*
X217945095Y-104539960D01*
X208470810Y-103391769D02*
X208470810Y-103875579D01*
X208761095Y-103295007D02*
X207745095Y-103633674D01*
X207745095Y-103633674D02*
X208761095Y-103972341D01*
X208180524Y-104456150D02*
X208132143Y-104359388D01*
X208132143Y-104359388D02*
X208083762Y-104311007D01*
X208083762Y-104311007D02*
X207987000Y-104262626D01*
X207987000Y-104262626D02*
X207938619Y-104262626D01*
X207938619Y-104262626D02*
X207841857Y-104311007D01*
X207841857Y-104311007D02*
X207793476Y-104359388D01*
X207793476Y-104359388D02*
X207745095Y-104456150D01*
X207745095Y-104456150D02*
X207745095Y-104649674D01*
X207745095Y-104649674D02*
X207793476Y-104746436D01*
X207793476Y-104746436D02*
X207841857Y-104794817D01*
X207841857Y-104794817D02*
X207938619Y-104843198D01*
X207938619Y-104843198D02*
X207987000Y-104843198D01*
X207987000Y-104843198D02*
X208083762Y-104794817D01*
X208083762Y-104794817D02*
X208132143Y-104746436D01*
X208132143Y-104746436D02*
X208180524Y-104649674D01*
X208180524Y-104649674D02*
X208180524Y-104456150D01*
X208180524Y-104456150D02*
X208228905Y-104359388D01*
X208228905Y-104359388D02*
X208277286Y-104311007D01*
X208277286Y-104311007D02*
X208374048Y-104262626D01*
X208374048Y-104262626D02*
X208567572Y-104262626D01*
X208567572Y-104262626D02*
X208664334Y-104311007D01*
X208664334Y-104311007D02*
X208712715Y-104359388D01*
X208712715Y-104359388D02*
X208761095Y-104456150D01*
X208761095Y-104456150D02*
X208761095Y-104649674D01*
X208761095Y-104649674D02*
X208712715Y-104746436D01*
X208712715Y-104746436D02*
X208664334Y-104794817D01*
X208664334Y-104794817D02*
X208567572Y-104843198D01*
X208567572Y-104843198D02*
X208374048Y-104843198D01*
X208374048Y-104843198D02*
X208277286Y-104794817D01*
X208277286Y-104794817D02*
X208228905Y-104746436D01*
X208228905Y-104746436D02*
X208180524Y-104649674D01*
X213761095Y-87240150D02*
X212745095Y-87240150D01*
X212745095Y-87240150D02*
X212745095Y-87482055D01*
X212745095Y-87482055D02*
X212793476Y-87627198D01*
X212793476Y-87627198D02*
X212890238Y-87723960D01*
X212890238Y-87723960D02*
X212987000Y-87772341D01*
X212987000Y-87772341D02*
X213180524Y-87820722D01*
X213180524Y-87820722D02*
X213325667Y-87820722D01*
X213325667Y-87820722D02*
X213519191Y-87772341D01*
X213519191Y-87772341D02*
X213615953Y-87723960D01*
X213615953Y-87723960D02*
X213712715Y-87627198D01*
X213712715Y-87627198D02*
X213761095Y-87482055D01*
X213761095Y-87482055D02*
X213761095Y-87240150D01*
X213761095Y-88788341D02*
X213761095Y-88207769D01*
X213761095Y-88498055D02*
X212745095Y-88498055D01*
X212745095Y-88498055D02*
X212890238Y-88401293D01*
X212890238Y-88401293D02*
X212987000Y-88304531D01*
X212987000Y-88304531D02*
X213035381Y-88207769D01*
X212745095Y-89659198D02*
X212745095Y-89465674D01*
X212745095Y-89465674D02*
X212793476Y-89368912D01*
X212793476Y-89368912D02*
X212841857Y-89320531D01*
X212841857Y-89320531D02*
X212987000Y-89223769D01*
X212987000Y-89223769D02*
X213180524Y-89175388D01*
X213180524Y-89175388D02*
X213567572Y-89175388D01*
X213567572Y-89175388D02*
X213664334Y-89223769D01*
X213664334Y-89223769D02*
X213712715Y-89272150D01*
X213712715Y-89272150D02*
X213761095Y-89368912D01*
X213761095Y-89368912D02*
X213761095Y-89562436D01*
X213761095Y-89562436D02*
X213712715Y-89659198D01*
X213712715Y-89659198D02*
X213664334Y-89707579D01*
X213664334Y-89707579D02*
X213567572Y-89755960D01*
X213567572Y-89755960D02*
X213325667Y-89755960D01*
X213325667Y-89755960D02*
X213228905Y-89707579D01*
X213228905Y-89707579D02*
X213180524Y-89659198D01*
X213180524Y-89659198D02*
X213132143Y-89562436D01*
X213132143Y-89562436D02*
X213132143Y-89368912D01*
X213132143Y-89368912D02*
X213180524Y-89272150D01*
X213180524Y-89272150D02*
X213228905Y-89223769D01*
X213228905Y-89223769D02*
X213325667Y-89175388D01*
X203811095Y-87440150D02*
X202795095Y-87440150D01*
X202795095Y-87440150D02*
X203520810Y-87778817D01*
X203520810Y-87778817D02*
X202795095Y-88117484D01*
X202795095Y-88117484D02*
X203811095Y-88117484D01*
X202795095Y-88794817D02*
X202795095Y-88988341D01*
X202795095Y-88988341D02*
X202843476Y-89085103D01*
X202843476Y-89085103D02*
X202940238Y-89181865D01*
X202940238Y-89181865D02*
X203133762Y-89230246D01*
X203133762Y-89230246D02*
X203472429Y-89230246D01*
X203472429Y-89230246D02*
X203665953Y-89181865D01*
X203665953Y-89181865D02*
X203762715Y-89085103D01*
X203762715Y-89085103D02*
X203811095Y-88988341D01*
X203811095Y-88988341D02*
X203811095Y-88794817D01*
X203811095Y-88794817D02*
X203762715Y-88698055D01*
X203762715Y-88698055D02*
X203665953Y-88601293D01*
X203665953Y-88601293D02*
X203472429Y-88552912D01*
X203472429Y-88552912D02*
X203133762Y-88552912D01*
X203133762Y-88552912D02*
X202940238Y-88601293D01*
X202940238Y-88601293D02*
X202843476Y-88698055D01*
X202843476Y-88698055D02*
X202795095Y-88794817D01*
X208721095Y-87440150D02*
X207705095Y-87440150D01*
X207705095Y-87440150D02*
X207705095Y-87682055D01*
X207705095Y-87682055D02*
X207753476Y-87827198D01*
X207753476Y-87827198D02*
X207850238Y-87923960D01*
X207850238Y-87923960D02*
X207947000Y-87972341D01*
X207947000Y-87972341D02*
X208140524Y-88020722D01*
X208140524Y-88020722D02*
X208285667Y-88020722D01*
X208285667Y-88020722D02*
X208479191Y-87972341D01*
X208479191Y-87972341D02*
X208575953Y-87923960D01*
X208575953Y-87923960D02*
X208672715Y-87827198D01*
X208672715Y-87827198D02*
X208721095Y-87682055D01*
X208721095Y-87682055D02*
X208721095Y-87440150D01*
X208721095Y-88988341D02*
X208721095Y-88407769D01*
X208721095Y-88698055D02*
X207705095Y-88698055D01*
X207705095Y-88698055D02*
X207850238Y-88601293D01*
X207850238Y-88601293D02*
X207947000Y-88504531D01*
X207947000Y-88504531D02*
X207995381Y-88407769D01*
X208140524Y-89568912D02*
X208092143Y-89472150D01*
X208092143Y-89472150D02*
X208043762Y-89423769D01*
X208043762Y-89423769D02*
X207947000Y-89375388D01*
X207947000Y-89375388D02*
X207898619Y-89375388D01*
X207898619Y-89375388D02*
X207801857Y-89423769D01*
X207801857Y-89423769D02*
X207753476Y-89472150D01*
X207753476Y-89472150D02*
X207705095Y-89568912D01*
X207705095Y-89568912D02*
X207705095Y-89762436D01*
X207705095Y-89762436D02*
X207753476Y-89859198D01*
X207753476Y-89859198D02*
X207801857Y-89907579D01*
X207801857Y-89907579D02*
X207898619Y-89955960D01*
X207898619Y-89955960D02*
X207947000Y-89955960D01*
X207947000Y-89955960D02*
X208043762Y-89907579D01*
X208043762Y-89907579D02*
X208092143Y-89859198D01*
X208092143Y-89859198D02*
X208140524Y-89762436D01*
X208140524Y-89762436D02*
X208140524Y-89568912D01*
X208140524Y-89568912D02*
X208188905Y-89472150D01*
X208188905Y-89472150D02*
X208237286Y-89423769D01*
X208237286Y-89423769D02*
X208334048Y-89375388D01*
X208334048Y-89375388D02*
X208527572Y-89375388D01*
X208527572Y-89375388D02*
X208624334Y-89423769D01*
X208624334Y-89423769D02*
X208672715Y-89472150D01*
X208672715Y-89472150D02*
X208721095Y-89568912D01*
X208721095Y-89568912D02*
X208721095Y-89762436D01*
X208721095Y-89762436D02*
X208672715Y-89859198D01*
X208672715Y-89859198D02*
X208624334Y-89907579D01*
X208624334Y-89907579D02*
X208527572Y-89955960D01*
X208527572Y-89955960D02*
X208334048Y-89955960D01*
X208334048Y-89955960D02*
X208237286Y-89907579D01*
X208237286Y-89907579D02*
X208188905Y-89859198D01*
X208188905Y-89859198D02*
X208140524Y-89762436D01*
X211251095Y-87440150D02*
X210235095Y-87440150D01*
X210235095Y-87440150D02*
X210235095Y-87682055D01*
X210235095Y-87682055D02*
X210283476Y-87827198D01*
X210283476Y-87827198D02*
X210380238Y-87923960D01*
X210380238Y-87923960D02*
X210477000Y-87972341D01*
X210477000Y-87972341D02*
X210670524Y-88020722D01*
X210670524Y-88020722D02*
X210815667Y-88020722D01*
X210815667Y-88020722D02*
X211009191Y-87972341D01*
X211009191Y-87972341D02*
X211105953Y-87923960D01*
X211105953Y-87923960D02*
X211202715Y-87827198D01*
X211202715Y-87827198D02*
X211251095Y-87682055D01*
X211251095Y-87682055D02*
X211251095Y-87440150D01*
X211251095Y-88988341D02*
X211251095Y-88407769D01*
X211251095Y-88698055D02*
X210235095Y-88698055D01*
X210235095Y-88698055D02*
X210380238Y-88601293D01*
X210380238Y-88601293D02*
X210477000Y-88504531D01*
X210477000Y-88504531D02*
X210525381Y-88407769D01*
X210235095Y-89327007D02*
X210235095Y-90004341D01*
X210235095Y-90004341D02*
X211251095Y-89568912D01*
X228145095Y-87343388D02*
X228145095Y-87972341D01*
X228145095Y-87972341D02*
X228532143Y-87633674D01*
X228532143Y-87633674D02*
X228532143Y-87778817D01*
X228532143Y-87778817D02*
X228580524Y-87875579D01*
X228580524Y-87875579D02*
X228628905Y-87923960D01*
X228628905Y-87923960D02*
X228725667Y-87972341D01*
X228725667Y-87972341D02*
X228967572Y-87972341D01*
X228967572Y-87972341D02*
X229064334Y-87923960D01*
X229064334Y-87923960D02*
X229112715Y-87875579D01*
X229112715Y-87875579D02*
X229161095Y-87778817D01*
X229161095Y-87778817D02*
X229161095Y-87488531D01*
X229161095Y-87488531D02*
X229112715Y-87391769D01*
X229112715Y-87391769D02*
X229064334Y-87343388D01*
X228145095Y-88262626D02*
X229161095Y-88601293D01*
X229161095Y-88601293D02*
X228145095Y-88939960D01*
X228145095Y-89181864D02*
X228145095Y-89810817D01*
X228145095Y-89810817D02*
X228532143Y-89472150D01*
X228532143Y-89472150D02*
X228532143Y-89617293D01*
X228532143Y-89617293D02*
X228580524Y-89714055D01*
X228580524Y-89714055D02*
X228628905Y-89762436D01*
X228628905Y-89762436D02*
X228725667Y-89810817D01*
X228725667Y-89810817D02*
X228967572Y-89810817D01*
X228967572Y-89810817D02*
X229064334Y-89762436D01*
X229064334Y-89762436D02*
X229112715Y-89714055D01*
X229112715Y-89714055D02*
X229161095Y-89617293D01*
X229161095Y-89617293D02*
X229161095Y-89327007D01*
X229161095Y-89327007D02*
X229112715Y-89230245D01*
X229112715Y-89230245D02*
X229064334Y-89181864D01*
X205870810Y-103191769D02*
X205870810Y-103675579D01*
X206161095Y-103095007D02*
X205145095Y-103433674D01*
X205145095Y-103433674D02*
X206161095Y-103772341D01*
X205145095Y-104014245D02*
X205145095Y-104691579D01*
X205145095Y-104691579D02*
X206161095Y-104256150D01*
X201161095Y-87440150D02*
X200145095Y-87440150D01*
X200145095Y-87440150D02*
X200870810Y-87778817D01*
X200870810Y-87778817D02*
X200145095Y-88117484D01*
X200145095Y-88117484D02*
X201161095Y-88117484D01*
X201161095Y-88601293D02*
X200145095Y-88601293D01*
X195712715Y-102191769D02*
X195761095Y-102336912D01*
X195761095Y-102336912D02*
X195761095Y-102578817D01*
X195761095Y-102578817D02*
X195712715Y-102675579D01*
X195712715Y-102675579D02*
X195664334Y-102723960D01*
X195664334Y-102723960D02*
X195567572Y-102772341D01*
X195567572Y-102772341D02*
X195470810Y-102772341D01*
X195470810Y-102772341D02*
X195374048Y-102723960D01*
X195374048Y-102723960D02*
X195325667Y-102675579D01*
X195325667Y-102675579D02*
X195277286Y-102578817D01*
X195277286Y-102578817D02*
X195228905Y-102385293D01*
X195228905Y-102385293D02*
X195180524Y-102288531D01*
X195180524Y-102288531D02*
X195132143Y-102240150D01*
X195132143Y-102240150D02*
X195035381Y-102191769D01*
X195035381Y-102191769D02*
X194938619Y-102191769D01*
X194938619Y-102191769D02*
X194841857Y-102240150D01*
X194841857Y-102240150D02*
X194793476Y-102288531D01*
X194793476Y-102288531D02*
X194745095Y-102385293D01*
X194745095Y-102385293D02*
X194745095Y-102627198D01*
X194745095Y-102627198D02*
X194793476Y-102772341D01*
X195761095Y-103207769D02*
X194745095Y-103207769D01*
X194745095Y-103207769D02*
X194745095Y-103449674D01*
X194745095Y-103449674D02*
X194793476Y-103594817D01*
X194793476Y-103594817D02*
X194890238Y-103691579D01*
X194890238Y-103691579D02*
X194987000Y-103739960D01*
X194987000Y-103739960D02*
X195180524Y-103788341D01*
X195180524Y-103788341D02*
X195325667Y-103788341D01*
X195325667Y-103788341D02*
X195519191Y-103739960D01*
X195519191Y-103739960D02*
X195615953Y-103691579D01*
X195615953Y-103691579D02*
X195712715Y-103594817D01*
X195712715Y-103594817D02*
X195761095Y-103449674D01*
X195761095Y-103449674D02*
X195761095Y-103207769D01*
X195470810Y-104175388D02*
X195470810Y-104659198D01*
X195761095Y-104078626D02*
X194745095Y-104417293D01*
X194745095Y-104417293D02*
X195761095Y-104755960D01*
X168108715Y-64706285D02*
X168157095Y-64851428D01*
X168157095Y-64851428D02*
X168157095Y-65093333D01*
X168157095Y-65093333D02*
X168108715Y-65190095D01*
X168108715Y-65190095D02*
X168060334Y-65238476D01*
X168060334Y-65238476D02*
X167963572Y-65286857D01*
X167963572Y-65286857D02*
X167866810Y-65286857D01*
X167866810Y-65286857D02*
X167770048Y-65238476D01*
X167770048Y-65238476D02*
X167721667Y-65190095D01*
X167721667Y-65190095D02*
X167673286Y-65093333D01*
X167673286Y-65093333D02*
X167624905Y-64899809D01*
X167624905Y-64899809D02*
X167576524Y-64803047D01*
X167576524Y-64803047D02*
X167528143Y-64754666D01*
X167528143Y-64754666D02*
X167431381Y-64706285D01*
X167431381Y-64706285D02*
X167334619Y-64706285D01*
X167334619Y-64706285D02*
X167237857Y-64754666D01*
X167237857Y-64754666D02*
X167189476Y-64803047D01*
X167189476Y-64803047D02*
X167141095Y-64899809D01*
X167141095Y-64899809D02*
X167141095Y-65141714D01*
X167141095Y-65141714D02*
X167189476Y-65286857D01*
X168157095Y-65722285D02*
X167141095Y-65722285D01*
X167141095Y-65722285D02*
X167141095Y-65964190D01*
X167141095Y-65964190D02*
X167189476Y-66109333D01*
X167189476Y-66109333D02*
X167286238Y-66206095D01*
X167286238Y-66206095D02*
X167383000Y-66254476D01*
X167383000Y-66254476D02*
X167576524Y-66302857D01*
X167576524Y-66302857D02*
X167721667Y-66302857D01*
X167721667Y-66302857D02*
X167915191Y-66254476D01*
X167915191Y-66254476D02*
X168011953Y-66206095D01*
X168011953Y-66206095D02*
X168108715Y-66109333D01*
X168108715Y-66109333D02*
X168157095Y-65964190D01*
X168157095Y-65964190D02*
X168157095Y-65722285D01*
X167866810Y-66689904D02*
X167866810Y-67173714D01*
X168157095Y-66593142D02*
X167141095Y-66931809D01*
X167141095Y-66931809D02*
X168157095Y-67270476D01*
X172341095Y-64455333D02*
X173357095Y-64794000D01*
X173357095Y-64794000D02*
X172341095Y-65132667D01*
X173260334Y-66051905D02*
X173308715Y-66003524D01*
X173308715Y-66003524D02*
X173357095Y-65858381D01*
X173357095Y-65858381D02*
X173357095Y-65761619D01*
X173357095Y-65761619D02*
X173308715Y-65616476D01*
X173308715Y-65616476D02*
X173211953Y-65519714D01*
X173211953Y-65519714D02*
X173115191Y-65471333D01*
X173115191Y-65471333D02*
X172921667Y-65422952D01*
X172921667Y-65422952D02*
X172776524Y-65422952D01*
X172776524Y-65422952D02*
X172583000Y-65471333D01*
X172583000Y-65471333D02*
X172486238Y-65519714D01*
X172486238Y-65519714D02*
X172389476Y-65616476D01*
X172389476Y-65616476D02*
X172341095Y-65761619D01*
X172341095Y-65761619D02*
X172341095Y-65858381D01*
X172341095Y-65858381D02*
X172389476Y-66003524D01*
X172389476Y-66003524D02*
X172437857Y-66051905D01*
X173260334Y-67067905D02*
X173308715Y-67019524D01*
X173308715Y-67019524D02*
X173357095Y-66874381D01*
X173357095Y-66874381D02*
X173357095Y-66777619D01*
X173357095Y-66777619D02*
X173308715Y-66632476D01*
X173308715Y-66632476D02*
X173211953Y-66535714D01*
X173211953Y-66535714D02*
X173115191Y-66487333D01*
X173115191Y-66487333D02*
X172921667Y-66438952D01*
X172921667Y-66438952D02*
X172776524Y-66438952D01*
X172776524Y-66438952D02*
X172583000Y-66487333D01*
X172583000Y-66487333D02*
X172486238Y-66535714D01*
X172486238Y-66535714D02*
X172389476Y-66632476D01*
X172389476Y-66632476D02*
X172341095Y-66777619D01*
X172341095Y-66777619D02*
X172341095Y-66874381D01*
X172341095Y-66874381D02*
X172389476Y-67019524D01*
X172389476Y-67019524D02*
X172437857Y-67067905D01*
X174679476Y-65015905D02*
X174631095Y-64919143D01*
X174631095Y-64919143D02*
X174631095Y-64774000D01*
X174631095Y-64774000D02*
X174679476Y-64628857D01*
X174679476Y-64628857D02*
X174776238Y-64532095D01*
X174776238Y-64532095D02*
X174873000Y-64483714D01*
X174873000Y-64483714D02*
X175066524Y-64435333D01*
X175066524Y-64435333D02*
X175211667Y-64435333D01*
X175211667Y-64435333D02*
X175405191Y-64483714D01*
X175405191Y-64483714D02*
X175501953Y-64532095D01*
X175501953Y-64532095D02*
X175598715Y-64628857D01*
X175598715Y-64628857D02*
X175647095Y-64774000D01*
X175647095Y-64774000D02*
X175647095Y-64870762D01*
X175647095Y-64870762D02*
X175598715Y-65015905D01*
X175598715Y-65015905D02*
X175550334Y-65064286D01*
X175550334Y-65064286D02*
X175211667Y-65064286D01*
X175211667Y-65064286D02*
X175211667Y-64870762D01*
X175647095Y-65499714D02*
X174631095Y-65499714D01*
X174631095Y-65499714D02*
X175647095Y-66080286D01*
X175647095Y-66080286D02*
X174631095Y-66080286D01*
X175647095Y-66564095D02*
X174631095Y-66564095D01*
X174631095Y-66564095D02*
X174631095Y-66806000D01*
X174631095Y-66806000D02*
X174679476Y-66951143D01*
X174679476Y-66951143D02*
X174776238Y-67047905D01*
X174776238Y-67047905D02*
X174873000Y-67096286D01*
X174873000Y-67096286D02*
X175066524Y-67144667D01*
X175066524Y-67144667D02*
X175211667Y-67144667D01*
X175211667Y-67144667D02*
X175405191Y-67096286D01*
X175405191Y-67096286D02*
X175501953Y-67047905D01*
X175501953Y-67047905D02*
X175598715Y-66951143D01*
X175598715Y-66951143D02*
X175647095Y-66806000D01*
X175647095Y-66806000D02*
X175647095Y-66564095D01*
X170248715Y-64600476D02*
X170297095Y-64745619D01*
X170297095Y-64745619D02*
X170297095Y-64987524D01*
X170297095Y-64987524D02*
X170248715Y-65084286D01*
X170248715Y-65084286D02*
X170200334Y-65132667D01*
X170200334Y-65132667D02*
X170103572Y-65181048D01*
X170103572Y-65181048D02*
X170006810Y-65181048D01*
X170006810Y-65181048D02*
X169910048Y-65132667D01*
X169910048Y-65132667D02*
X169861667Y-65084286D01*
X169861667Y-65084286D02*
X169813286Y-64987524D01*
X169813286Y-64987524D02*
X169764905Y-64794000D01*
X169764905Y-64794000D02*
X169716524Y-64697238D01*
X169716524Y-64697238D02*
X169668143Y-64648857D01*
X169668143Y-64648857D02*
X169571381Y-64600476D01*
X169571381Y-64600476D02*
X169474619Y-64600476D01*
X169474619Y-64600476D02*
X169377857Y-64648857D01*
X169377857Y-64648857D02*
X169329476Y-64697238D01*
X169329476Y-64697238D02*
X169281095Y-64794000D01*
X169281095Y-64794000D02*
X169281095Y-65035905D01*
X169281095Y-65035905D02*
X169329476Y-65181048D01*
X170200334Y-66197048D02*
X170248715Y-66148667D01*
X170248715Y-66148667D02*
X170297095Y-66003524D01*
X170297095Y-66003524D02*
X170297095Y-65906762D01*
X170297095Y-65906762D02*
X170248715Y-65761619D01*
X170248715Y-65761619D02*
X170151953Y-65664857D01*
X170151953Y-65664857D02*
X170055191Y-65616476D01*
X170055191Y-65616476D02*
X169861667Y-65568095D01*
X169861667Y-65568095D02*
X169716524Y-65568095D01*
X169716524Y-65568095D02*
X169523000Y-65616476D01*
X169523000Y-65616476D02*
X169426238Y-65664857D01*
X169426238Y-65664857D02*
X169329476Y-65761619D01*
X169329476Y-65761619D02*
X169281095Y-65906762D01*
X169281095Y-65906762D02*
X169281095Y-66003524D01*
X169281095Y-66003524D02*
X169329476Y-66148667D01*
X169329476Y-66148667D02*
X169377857Y-66197048D01*
X170297095Y-67116286D02*
X170297095Y-66632476D01*
X170297095Y-66632476D02*
X169281095Y-66632476D01*
X222765904Y-63683904D02*
X222765904Y-62861427D01*
X222765904Y-62861427D02*
X222814285Y-62764665D01*
X222814285Y-62764665D02*
X222862666Y-62716285D01*
X222862666Y-62716285D02*
X222959428Y-62667904D01*
X222959428Y-62667904D02*
X223152952Y-62667904D01*
X223152952Y-62667904D02*
X223249714Y-62716285D01*
X223249714Y-62716285D02*
X223298095Y-62764665D01*
X223298095Y-62764665D02*
X223346476Y-62861427D01*
X223346476Y-62861427D02*
X223346476Y-63683904D01*
X223975428Y-63248475D02*
X223878666Y-63296856D01*
X223878666Y-63296856D02*
X223830285Y-63345237D01*
X223830285Y-63345237D02*
X223781904Y-63441999D01*
X223781904Y-63441999D02*
X223781904Y-63490380D01*
X223781904Y-63490380D02*
X223830285Y-63587142D01*
X223830285Y-63587142D02*
X223878666Y-63635523D01*
X223878666Y-63635523D02*
X223975428Y-63683904D01*
X223975428Y-63683904D02*
X224168952Y-63683904D01*
X224168952Y-63683904D02*
X224265714Y-63635523D01*
X224265714Y-63635523D02*
X224314095Y-63587142D01*
X224314095Y-63587142D02*
X224362476Y-63490380D01*
X224362476Y-63490380D02*
X224362476Y-63441999D01*
X224362476Y-63441999D02*
X224314095Y-63345237D01*
X224314095Y-63345237D02*
X224265714Y-63296856D01*
X224265714Y-63296856D02*
X224168952Y-63248475D01*
X224168952Y-63248475D02*
X223975428Y-63248475D01*
X223975428Y-63248475D02*
X223878666Y-63200094D01*
X223878666Y-63200094D02*
X223830285Y-63151713D01*
X223830285Y-63151713D02*
X223781904Y-63054951D01*
X223781904Y-63054951D02*
X223781904Y-62861427D01*
X223781904Y-62861427D02*
X223830285Y-62764665D01*
X223830285Y-62764665D02*
X223878666Y-62716285D01*
X223878666Y-62716285D02*
X223975428Y-62667904D01*
X223975428Y-62667904D02*
X224168952Y-62667904D01*
X224168952Y-62667904D02*
X224265714Y-62716285D01*
X224265714Y-62716285D02*
X224314095Y-62764665D01*
X224314095Y-62764665D02*
X224362476Y-62861427D01*
X224362476Y-62861427D02*
X224362476Y-63054951D01*
X224362476Y-63054951D02*
X224314095Y-63151713D01*
X224314095Y-63151713D02*
X224265714Y-63200094D01*
X224265714Y-63200094D02*
X224168952Y-63248475D01*
G36*
X226815624Y-65337353D02*
G01*
X220342910Y-65337353D01*
X220342910Y-64567692D01*
X220455799Y-64567692D01*
X220455799Y-64712835D01*
X220456054Y-64715427D01*
X220455889Y-64716539D01*
X220456711Y-64722102D01*
X220457263Y-64727701D01*
X220457692Y-64728738D01*
X220458074Y-64731316D01*
X220506455Y-64924840D01*
X220506847Y-64925937D01*
X220506886Y-64926485D01*
X220509249Y-64932661D01*
X220511481Y-64938907D01*
X220511808Y-64939349D01*
X220512225Y-64940437D01*
X220560606Y-65037198D01*
X220564632Y-65043595D01*
X220565403Y-65045455D01*
X220567120Y-65047547D01*
X220568563Y-65049840D01*
X220570082Y-65051158D01*
X220574879Y-65057003D01*
X220671641Y-65153764D01*
X220683188Y-65163241D01*
X220685717Y-65164288D01*
X220687786Y-65166083D01*
X220701426Y-65172173D01*
X220846569Y-65220554D01*
X220853942Y-65222230D01*
X220855800Y-65223000D01*
X220858492Y-65223265D01*
X220861135Y-65223866D01*
X220863143Y-65223723D01*
X220870666Y-65224464D01*
X220967428Y-65224464D01*
X220974949Y-65223723D01*
X220976958Y-65223866D01*
X220979600Y-65223265D01*
X220982294Y-65223000D01*
X220984152Y-65222230D01*
X220991525Y-65220554D01*
X221136667Y-65172173D01*
X221150308Y-65166083D01*
X221152377Y-65164287D01*
X221154905Y-65163241D01*
X221166453Y-65153765D01*
X221214833Y-65105384D01*
X221224310Y-65093837D01*
X221235687Y-65066368D01*
X221235687Y-65036636D01*
X221224310Y-65009168D01*
X221203286Y-64988144D01*
X221175818Y-64976767D01*
X221146086Y-64976767D01*
X221118617Y-64988144D01*
X221107070Y-64997621D01*
X221071408Y-65033281D01*
X220955061Y-65072064D01*
X220883032Y-65072064D01*
X220766684Y-65033281D01*
X220691385Y-64957981D01*
X220652276Y-64879764D01*
X220608199Y-64703454D01*
X220608199Y-64577073D01*
X220652276Y-64400763D01*
X220691385Y-64322544D01*
X220766683Y-64247247D01*
X220883032Y-64208464D01*
X220955061Y-64208464D01*
X221071410Y-64247247D01*
X221107071Y-64282907D01*
X221118618Y-64292383D01*
X221146086Y-64303760D01*
X221175819Y-64303760D01*
X221203287Y-64292382D01*
X221224310Y-64271359D01*
X221235687Y-64243890D01*
X221235687Y-64214158D01*
X221224309Y-64186690D01*
X221214833Y-64175143D01*
X221171953Y-64132264D01*
X221520180Y-64132264D01*
X221520180Y-65148264D01*
X221521644Y-65163130D01*
X221533022Y-65190598D01*
X221554046Y-65211622D01*
X221581514Y-65223000D01*
X221611246Y-65223000D01*
X221638714Y-65211622D01*
X221659738Y-65190598D01*
X221671116Y-65163130D01*
X221672580Y-65148264D01*
X221672580Y-64740654D01*
X222100752Y-64740654D01*
X222100752Y-65148264D01*
X222102216Y-65163130D01*
X222113594Y-65190598D01*
X222134618Y-65211622D01*
X222162086Y-65223000D01*
X222191818Y-65223000D01*
X222219286Y-65211622D01*
X222240310Y-65190598D01*
X222251688Y-65163130D01*
X222253152Y-65148264D01*
X222253152Y-64867508D01*
X222536779Y-64867508D01*
X222546181Y-64895715D01*
X222565660Y-64918176D01*
X222578302Y-64926133D01*
X222664002Y-64968983D01*
X222746688Y-65051668D01*
X222839264Y-65190532D01*
X222839297Y-65190573D01*
X222839308Y-65190598D01*
X222839363Y-65190653D01*
X222848728Y-65202089D01*
X222854997Y-65206287D01*
X222860332Y-65211622D01*
X222867229Y-65214478D01*
X222873432Y-65218633D01*
X222880828Y-65220112D01*
X222887800Y-65223000D01*
X222895267Y-65223000D01*
X222902587Y-65224464D01*
X222909987Y-65223000D01*
X222917532Y-65223000D01*
X222924429Y-65220142D01*
X222931753Y-65218694D01*
X222938030Y-65214508D01*
X222945000Y-65211622D01*
X222950278Y-65206344D01*
X222956491Y-65202202D01*
X222960689Y-65195932D01*
X222966024Y-65190598D01*
X222968880Y-65183700D01*
X222973035Y-65177498D01*
X222974514Y-65170101D01*
X222977402Y-65163130D01*
X222978850Y-65148419D01*
X222978866Y-65148343D01*
X222978860Y-65148316D01*
X222978866Y-65148264D01*
X222978866Y-64208464D01*
X223192952Y-64208464D01*
X223207818Y-64207000D01*
X223235286Y-64195622D01*
X223256310Y-64174598D01*
X223267688Y-64147130D01*
X223267688Y-64132264D01*
X224326275Y-64132264D01*
X224326275Y-65148264D01*
X224327237Y-65158040D01*
X224327159Y-65159833D01*
X224327509Y-65160796D01*
X224327739Y-65163130D01*
X224332801Y-65175351D01*
X224337319Y-65187776D01*
X224338467Y-65189030D01*
X224339117Y-65190598D01*
X224348457Y-65199938D01*
X224357399Y-65209702D01*
X224358940Y-65210421D01*
X224360141Y-65211622D01*
X224372357Y-65216682D01*
X224384342Y-65222275D01*
X224386038Y-65222349D01*
X224387609Y-65223000D01*
X224400843Y-65223000D01*
X224414044Y-65223580D01*
X224415639Y-65223000D01*
X224417341Y-65223000D01*
X224429562Y-65217937D01*
X224441987Y-65213420D01*
X224443241Y-65212271D01*
X224444809Y-65211622D01*
X224454149Y-65202281D01*
X224463913Y-65193340D01*
X224465107Y-65191323D01*
X224465833Y-65190598D01*
X224466520Y-65188937D01*
X224471526Y-65180488D01*
X224741142Y-64602739D01*
X225010758Y-65180488D01*
X225015763Y-65188937D01*
X225016451Y-65190598D01*
X225017176Y-65191323D01*
X225018371Y-65193340D01*
X225028129Y-65202276D01*
X225037475Y-65211622D01*
X225039044Y-65212272D01*
X225040297Y-65213419D01*
X225052710Y-65217932D01*
X225064943Y-65223000D01*
X225066645Y-65223000D01*
X225068240Y-65223580D01*
X225081441Y-65223000D01*
X225094675Y-65223000D01*
X225096245Y-65222349D01*
X225097942Y-65222275D01*
X225109926Y-65216682D01*
X225122143Y-65211622D01*
X225123343Y-65210421D01*
X225124885Y-65209702D01*
X225133821Y-65199943D01*
X225143167Y-65190598D01*
X225143817Y-65189028D01*
X225144965Y-65187775D01*
X225149480Y-65175355D01*
X225154545Y-65163130D01*
X225154774Y-65160795D01*
X225155125Y-65159833D01*
X225155046Y-65158040D01*
X225156009Y-65148264D01*
X225156009Y-64132264D01*
X225487418Y-64132264D01*
X225487418Y-65148264D01*
X225488882Y-65163130D01*
X225500260Y-65190598D01*
X225521284Y-65211622D01*
X225548752Y-65223000D01*
X225578484Y-65223000D01*
X225605952Y-65211622D01*
X225626976Y-65190598D01*
X225638354Y-65163130D01*
X225639818Y-65148264D01*
X225639818Y-64567692D01*
X225922847Y-64567692D01*
X225922847Y-64712835D01*
X225923102Y-64715427D01*
X225922937Y-64716539D01*
X225923759Y-64722102D01*
X225924311Y-64727701D01*
X225924740Y-64728738D01*
X225925122Y-64731316D01*
X225973503Y-64924840D01*
X225973895Y-64925937D01*
X225973934Y-64926485D01*
X225976297Y-64932661D01*
X225978529Y-64938907D01*
X225978856Y-64939349D01*
X225979273Y-64940437D01*
X226027654Y-65037198D01*
X226031680Y-65043595D01*
X226032451Y-65045455D01*
X226034168Y-65047547D01*
X226035611Y-65049840D01*
X226037130Y-65051158D01*
X226041927Y-65057003D01*
X226138689Y-65153764D01*
X226150236Y-65163241D01*
X226152765Y-65164288D01*
X226154834Y-65166083D01*
X226168474Y-65172173D01*
X226313617Y-65220554D01*
X226320990Y-65222230D01*
X226322848Y-65223000D01*
X226325540Y-65223265D01*
X226328183Y-65223866D01*
X226330191Y-65223723D01*
X226337714Y-65224464D01*
X226434476Y-65224464D01*
X226441997Y-65223723D01*
X226444006Y-65223866D01*
X226446648Y-65223265D01*
X226449342Y-65223000D01*
X226451200Y-65222230D01*
X226458573Y-65220554D01*
X226603715Y-65172173D01*
X226617356Y-65166083D01*
X226619425Y-65164287D01*
X226621953Y-65163241D01*
X226633501Y-65153765D01*
X226681881Y-65105384D01*
X226691358Y-65093837D01*
X226702735Y-65066368D01*
X226702735Y-65036636D01*
X226691358Y-65009168D01*
X226670334Y-64988144D01*
X226642866Y-64976767D01*
X226613134Y-64976767D01*
X226585665Y-64988144D01*
X226574118Y-64997621D01*
X226538456Y-65033281D01*
X226422109Y-65072064D01*
X226350080Y-65072064D01*
X226233732Y-65033281D01*
X226158433Y-64957981D01*
X226119324Y-64879764D01*
X226075247Y-64703454D01*
X226075247Y-64577073D01*
X226119324Y-64400763D01*
X226158433Y-64322544D01*
X226233731Y-64247247D01*
X226350080Y-64208464D01*
X226422109Y-64208464D01*
X226538458Y-64247247D01*
X226574119Y-64282907D01*
X226585666Y-64292383D01*
X226613134Y-64303760D01*
X226642867Y-64303760D01*
X226670335Y-64292382D01*
X226691358Y-64271359D01*
X226702735Y-64243890D01*
X226702735Y-64214158D01*
X226691357Y-64186690D01*
X226681881Y-64175143D01*
X226633500Y-64126763D01*
X226621953Y-64117286D01*
X226619423Y-64116238D01*
X226617356Y-64114445D01*
X226603715Y-64108355D01*
X226458573Y-64059974D01*
X226451200Y-64058297D01*
X226449342Y-64057528D01*
X226446648Y-64057262D01*
X226444006Y-64056662D01*
X226441997Y-64056804D01*
X226434476Y-64056064D01*
X226337714Y-64056064D01*
X226330191Y-64056804D01*
X226328183Y-64056662D01*
X226325540Y-64057262D01*
X226322848Y-64057528D01*
X226320990Y-64058297D01*
X226313617Y-64059974D01*
X226168474Y-64108355D01*
X226154834Y-64114445D01*
X226152764Y-64116240D01*
X226150237Y-64117287D01*
X226138689Y-64126763D01*
X226041928Y-64223524D01*
X226037131Y-64229368D01*
X226035611Y-64230687D01*
X226034169Y-64232976D01*
X226032451Y-64235071D01*
X226031679Y-64236932D01*
X226027654Y-64243329D01*
X225979273Y-64340090D01*
X225978856Y-64341177D01*
X225978529Y-64341620D01*
X225976297Y-64347865D01*
X225973934Y-64354042D01*
X225973895Y-64354589D01*
X225973503Y-64355687D01*
X225925122Y-64549211D01*
X225924740Y-64551788D01*
X225924311Y-64552826D01*
X225923759Y-64558424D01*
X225922937Y-64563988D01*
X225923102Y-64565099D01*
X225922847Y-64567692D01*
X225639818Y-64567692D01*
X225639818Y-64132264D01*
X225638354Y-64117398D01*
X225626976Y-64089930D01*
X225605952Y-64068906D01*
X225578484Y-64057528D01*
X225548752Y-64057528D01*
X225521284Y-64068906D01*
X225500260Y-64089930D01*
X225488882Y-64117398D01*
X225487418Y-64132264D01*
X225156009Y-64132264D01*
X225154545Y-64117398D01*
X225143167Y-64089930D01*
X225122143Y-64068906D01*
X225094675Y-64057528D01*
X225064943Y-64057528D01*
X225037475Y-64068906D01*
X225016451Y-64089930D01*
X225005073Y-64117398D01*
X225003609Y-64132264D01*
X225003609Y-64804787D01*
X224810193Y-64390325D01*
X224806968Y-64384880D01*
X224806298Y-64383038D01*
X224805104Y-64381734D01*
X224802580Y-64377473D01*
X224794037Y-64369649D01*
X224786218Y-64361111D01*
X224783151Y-64359679D01*
X224780654Y-64357393D01*
X224769770Y-64353435D01*
X224759275Y-64348538D01*
X224755891Y-64348389D01*
X224752711Y-64347233D01*
X224741142Y-64347741D01*
X224729573Y-64347233D01*
X224726393Y-64348389D01*
X224723009Y-64348538D01*
X224712507Y-64353438D01*
X224701630Y-64357394D01*
X224699134Y-64359678D01*
X224696066Y-64361111D01*
X224688242Y-64369653D01*
X224679704Y-64377473D01*
X224677181Y-64381731D01*
X224675986Y-64383037D01*
X224675315Y-64384882D01*
X224672091Y-64390325D01*
X224478675Y-64804787D01*
X224478675Y-64132264D01*
X224477211Y-64117398D01*
X224465833Y-64089930D01*
X224444809Y-64068906D01*
X224417341Y-64057528D01*
X224387609Y-64057528D01*
X224360141Y-64068906D01*
X224339117Y-64089930D01*
X224327739Y-64117398D01*
X224326275Y-64132264D01*
X223267688Y-64132264D01*
X223267688Y-64117398D01*
X223256310Y-64089930D01*
X223235286Y-64068906D01*
X223207818Y-64057528D01*
X223192952Y-64056064D01*
X222612380Y-64056064D01*
X222597514Y-64057528D01*
X222570046Y-64068906D01*
X222549022Y-64089930D01*
X222537644Y-64117398D01*
X222537644Y-64147130D01*
X222549022Y-64174598D01*
X222570046Y-64195622D01*
X222597514Y-64207000D01*
X222612380Y-64208464D01*
X222826466Y-64208464D01*
X222826466Y-64915919D01*
X222763024Y-64852477D01*
X222757179Y-64847680D01*
X222755861Y-64846161D01*
X222753568Y-64844718D01*
X222751476Y-64843001D01*
X222749616Y-64842230D01*
X222743219Y-64838204D01*
X222646458Y-64789823D01*
X222632506Y-64784484D01*
X222602850Y-64782377D01*
X222574643Y-64791779D01*
X222552182Y-64811258D01*
X222538886Y-64837852D01*
X222536779Y-64867508D01*
X222253152Y-64867508D01*
X222253152Y-64132264D01*
X222251688Y-64117398D01*
X222240310Y-64089930D01*
X222219286Y-64068906D01*
X222191818Y-64057528D01*
X222162086Y-64057528D01*
X222134618Y-64068906D01*
X222113594Y-64089930D01*
X222102216Y-64117398D01*
X222100752Y-64132264D01*
X222100752Y-64588254D01*
X221672580Y-64588254D01*
X221672580Y-64132264D01*
X221671116Y-64117398D01*
X221659738Y-64089930D01*
X221638714Y-64068906D01*
X221611246Y-64057528D01*
X221581514Y-64057528D01*
X221554046Y-64068906D01*
X221533022Y-64089930D01*
X221521644Y-64117398D01*
X221520180Y-64132264D01*
X221171953Y-64132264D01*
X221166452Y-64126763D01*
X221154905Y-64117286D01*
X221152375Y-64116238D01*
X221150308Y-64114445D01*
X221136667Y-64108355D01*
X220991525Y-64059974D01*
X220984152Y-64058297D01*
X220982294Y-64057528D01*
X220979600Y-64057262D01*
X220976958Y-64056662D01*
X220974949Y-64056804D01*
X220967428Y-64056064D01*
X220870666Y-64056064D01*
X220863143Y-64056804D01*
X220861135Y-64056662D01*
X220858492Y-64057262D01*
X220855800Y-64057528D01*
X220853942Y-64058297D01*
X220846569Y-64059974D01*
X220701426Y-64108355D01*
X220687786Y-64114445D01*
X220685716Y-64116240D01*
X220683189Y-64117287D01*
X220671641Y-64126763D01*
X220574880Y-64223524D01*
X220570083Y-64229368D01*
X220568563Y-64230687D01*
X220567121Y-64232976D01*
X220565403Y-64235071D01*
X220564631Y-64236932D01*
X220560606Y-64243329D01*
X220512225Y-64340090D01*
X220511808Y-64341177D01*
X220511481Y-64341620D01*
X220509249Y-64347865D01*
X220506886Y-64354042D01*
X220506847Y-64354589D01*
X220506455Y-64355687D01*
X220458074Y-64549211D01*
X220457692Y-64551788D01*
X220457263Y-64552826D01*
X220456711Y-64558424D01*
X220455889Y-64563988D01*
X220456054Y-64565099D01*
X220455799Y-64567692D01*
X220342910Y-64567692D01*
X220342910Y-63943175D01*
X226815624Y-63943175D01*
X226815624Y-65337353D01*
G37*
X232031106Y-68010169D02*
X232031106Y-67526359D01*
X232031106Y-67526359D02*
X231015106Y-67526359D01*
X232031106Y-68929407D02*
X231547297Y-68590740D01*
X232031106Y-68348835D02*
X231015106Y-68348835D01*
X231015106Y-68348835D02*
X231015106Y-68735883D01*
X231015106Y-68735883D02*
X231063487Y-68832645D01*
X231063487Y-68832645D02*
X231111868Y-68881026D01*
X231111868Y-68881026D02*
X231208630Y-68929407D01*
X231208630Y-68929407D02*
X231353773Y-68929407D01*
X231353773Y-68929407D02*
X231450535Y-68881026D01*
X231450535Y-68881026D02*
X231498916Y-68832645D01*
X231498916Y-68832645D02*
X231547297Y-68735883D01*
X231547297Y-68735883D02*
X231547297Y-68348835D01*
X224286526Y-66520035D02*
X224334906Y-66665178D01*
X224334906Y-66665178D02*
X224334906Y-66907083D01*
X224334906Y-66907083D02*
X224286526Y-67003845D01*
X224286526Y-67003845D02*
X224238145Y-67052226D01*
X224238145Y-67052226D02*
X224141383Y-67100607D01*
X224141383Y-67100607D02*
X224044621Y-67100607D01*
X224044621Y-67100607D02*
X223947859Y-67052226D01*
X223947859Y-67052226D02*
X223899478Y-67003845D01*
X223899478Y-67003845D02*
X223851097Y-66907083D01*
X223851097Y-66907083D02*
X223802716Y-66713559D01*
X223802716Y-66713559D02*
X223754335Y-66616797D01*
X223754335Y-66616797D02*
X223705954Y-66568416D01*
X223705954Y-66568416D02*
X223609192Y-66520035D01*
X223609192Y-66520035D02*
X223512430Y-66520035D01*
X223512430Y-66520035D02*
X223415668Y-66568416D01*
X223415668Y-66568416D02*
X223367287Y-66616797D01*
X223367287Y-66616797D02*
X223318906Y-66713559D01*
X223318906Y-66713559D02*
X223318906Y-66955464D01*
X223318906Y-66955464D02*
X223367287Y-67100607D01*
X224238145Y-68116607D02*
X224286526Y-68068226D01*
X224286526Y-68068226D02*
X224334906Y-67923083D01*
X224334906Y-67923083D02*
X224334906Y-67826321D01*
X224334906Y-67826321D02*
X224286526Y-67681178D01*
X224286526Y-67681178D02*
X224189764Y-67584416D01*
X224189764Y-67584416D02*
X224093002Y-67536035D01*
X224093002Y-67536035D02*
X223899478Y-67487654D01*
X223899478Y-67487654D02*
X223754335Y-67487654D01*
X223754335Y-67487654D02*
X223560811Y-67536035D01*
X223560811Y-67536035D02*
X223464049Y-67584416D01*
X223464049Y-67584416D02*
X223367287Y-67681178D01*
X223367287Y-67681178D02*
X223318906Y-67826321D01*
X223318906Y-67826321D02*
X223318906Y-67923083D01*
X223318906Y-67923083D02*
X223367287Y-68068226D01*
X223367287Y-68068226D02*
X223415668Y-68116607D01*
X224334906Y-68552035D02*
X223318906Y-68552035D01*
X224334906Y-69132607D02*
X223754335Y-68697178D01*
X223318906Y-69132607D02*
X223899478Y-68552035D01*
X220829706Y-66520035D02*
X221845706Y-66858702D01*
X221845706Y-66858702D02*
X220829706Y-67197369D01*
X221748945Y-68116607D02*
X221797326Y-68068226D01*
X221797326Y-68068226D02*
X221845706Y-67923083D01*
X221845706Y-67923083D02*
X221845706Y-67826321D01*
X221845706Y-67826321D02*
X221797326Y-67681178D01*
X221797326Y-67681178D02*
X221700564Y-67584416D01*
X221700564Y-67584416D02*
X221603802Y-67536035D01*
X221603802Y-67536035D02*
X221410278Y-67487654D01*
X221410278Y-67487654D02*
X221265135Y-67487654D01*
X221265135Y-67487654D02*
X221071611Y-67536035D01*
X221071611Y-67536035D02*
X220974849Y-67584416D01*
X220974849Y-67584416D02*
X220878087Y-67681178D01*
X220878087Y-67681178D02*
X220829706Y-67826321D01*
X220829706Y-67826321D02*
X220829706Y-67923083D01*
X220829706Y-67923083D02*
X220878087Y-68068226D01*
X220878087Y-68068226D02*
X220926468Y-68116607D01*
X221748945Y-69132607D02*
X221797326Y-69084226D01*
X221797326Y-69084226D02*
X221845706Y-68939083D01*
X221845706Y-68939083D02*
X221845706Y-68842321D01*
X221845706Y-68842321D02*
X221797326Y-68697178D01*
X221797326Y-68697178D02*
X221700564Y-68600416D01*
X221700564Y-68600416D02*
X221603802Y-68552035D01*
X221603802Y-68552035D02*
X221410278Y-68503654D01*
X221410278Y-68503654D02*
X221265135Y-68503654D01*
X221265135Y-68503654D02*
X221071611Y-68552035D01*
X221071611Y-68552035D02*
X220974849Y-68600416D01*
X220974849Y-68600416D02*
X220878087Y-68697178D01*
X220878087Y-68697178D02*
X220829706Y-68842321D01*
X220829706Y-68842321D02*
X220829706Y-68939083D01*
X220829706Y-68939083D02*
X220878087Y-69084226D01*
X220878087Y-69084226D02*
X220926468Y-69132607D01*
X226877326Y-67307435D02*
X226925706Y-67452578D01*
X226925706Y-67452578D02*
X226925706Y-67694483D01*
X226925706Y-67694483D02*
X226877326Y-67791245D01*
X226877326Y-67791245D02*
X226828945Y-67839626D01*
X226828945Y-67839626D02*
X226732183Y-67888007D01*
X226732183Y-67888007D02*
X226635421Y-67888007D01*
X226635421Y-67888007D02*
X226538659Y-67839626D01*
X226538659Y-67839626D02*
X226490278Y-67791245D01*
X226490278Y-67791245D02*
X226441897Y-67694483D01*
X226441897Y-67694483D02*
X226393516Y-67500959D01*
X226393516Y-67500959D02*
X226345135Y-67404197D01*
X226345135Y-67404197D02*
X226296754Y-67355816D01*
X226296754Y-67355816D02*
X226199992Y-67307435D01*
X226199992Y-67307435D02*
X226103230Y-67307435D01*
X226103230Y-67307435D02*
X226006468Y-67355816D01*
X226006468Y-67355816D02*
X225958087Y-67404197D01*
X225958087Y-67404197D02*
X225909706Y-67500959D01*
X225909706Y-67500959D02*
X225909706Y-67742864D01*
X225909706Y-67742864D02*
X225958087Y-67888007D01*
X226925706Y-68323435D02*
X225909706Y-68323435D01*
X225909706Y-68323435D02*
X225909706Y-68565340D01*
X225909706Y-68565340D02*
X225958087Y-68710483D01*
X225958087Y-68710483D02*
X226054849Y-68807245D01*
X226054849Y-68807245D02*
X226151611Y-68855626D01*
X226151611Y-68855626D02*
X226345135Y-68904007D01*
X226345135Y-68904007D02*
X226490278Y-68904007D01*
X226490278Y-68904007D02*
X226683802Y-68855626D01*
X226683802Y-68855626D02*
X226780564Y-68807245D01*
X226780564Y-68807245D02*
X226877326Y-68710483D01*
X226877326Y-68710483D02*
X226925706Y-68565340D01*
X226925706Y-68565340D02*
X226925706Y-68323435D01*
X228475106Y-67063111D02*
X229491106Y-67305016D01*
X229491106Y-67305016D02*
X228765392Y-67498540D01*
X228765392Y-67498540D02*
X229491106Y-67692064D01*
X229491106Y-67692064D02*
X228475106Y-67933969D01*
X229442726Y-68272635D02*
X229491106Y-68417778D01*
X229491106Y-68417778D02*
X229491106Y-68659683D01*
X229491106Y-68659683D02*
X229442726Y-68756445D01*
X229442726Y-68756445D02*
X229394345Y-68804826D01*
X229394345Y-68804826D02*
X229297583Y-68853207D01*
X229297583Y-68853207D02*
X229200821Y-68853207D01*
X229200821Y-68853207D02*
X229104059Y-68804826D01*
X229104059Y-68804826D02*
X229055678Y-68756445D01*
X229055678Y-68756445D02*
X229007297Y-68659683D01*
X229007297Y-68659683D02*
X228958916Y-68466159D01*
X228958916Y-68466159D02*
X228910535Y-68369397D01*
X228910535Y-68369397D02*
X228862154Y-68321016D01*
X228862154Y-68321016D02*
X228765392Y-68272635D01*
X228765392Y-68272635D02*
X228668630Y-68272635D01*
X228668630Y-68272635D02*
X228571868Y-68321016D01*
X228571868Y-68321016D02*
X228523487Y-68369397D01*
X228523487Y-68369397D02*
X228475106Y-68466159D01*
X228475106Y-68466159D02*
X228475106Y-68708064D01*
X228475106Y-68708064D02*
X228523487Y-68853207D01*
X233610116Y-72437451D02*
X233561735Y-72340689D01*
X233561735Y-72340689D02*
X233561735Y-72195546D01*
X233561735Y-72195546D02*
X233610116Y-72050403D01*
X233610116Y-72050403D02*
X233706878Y-71953641D01*
X233706878Y-71953641D02*
X233803640Y-71905260D01*
X233803640Y-71905260D02*
X233997164Y-71856879D01*
X233997164Y-71856879D02*
X234142307Y-71856879D01*
X234142307Y-71856879D02*
X234335831Y-71905260D01*
X234335831Y-71905260D02*
X234432593Y-71953641D01*
X234432593Y-71953641D02*
X234529355Y-72050403D01*
X234529355Y-72050403D02*
X234577735Y-72195546D01*
X234577735Y-72195546D02*
X234577735Y-72292308D01*
X234577735Y-72292308D02*
X234529355Y-72437451D01*
X234529355Y-72437451D02*
X234480974Y-72485832D01*
X234480974Y-72485832D02*
X234142307Y-72485832D01*
X234142307Y-72485832D02*
X234142307Y-72292308D01*
X234577735Y-72921260D02*
X233561735Y-72921260D01*
X233561735Y-72921260D02*
X234577735Y-73501832D01*
X234577735Y-73501832D02*
X233561735Y-73501832D01*
X234577735Y-73985641D02*
X233561735Y-73985641D01*
X233561735Y-73985641D02*
X233561735Y-74227546D01*
X233561735Y-74227546D02*
X233610116Y-74372689D01*
X233610116Y-74372689D02*
X233706878Y-74469451D01*
X233706878Y-74469451D02*
X233803640Y-74517832D01*
X233803640Y-74517832D02*
X233997164Y-74566213D01*
X233997164Y-74566213D02*
X234142307Y-74566213D01*
X234142307Y-74566213D02*
X234335831Y-74517832D01*
X234335831Y-74517832D02*
X234432593Y-74469451D01*
X234432593Y-74469451D02*
X234529355Y-74372689D01*
X234529355Y-74372689D02*
X234577735Y-74227546D01*
X234577735Y-74227546D02*
X234577735Y-73985641D01*
X201715675Y-64099898D02*
X201715675Y-63277421D01*
X201715675Y-63277421D02*
X201764056Y-63180659D01*
X201764056Y-63180659D02*
X201812437Y-63132279D01*
X201812437Y-63132279D02*
X201909199Y-63083898D01*
X201909199Y-63083898D02*
X202102723Y-63083898D01*
X202102723Y-63083898D02*
X202199485Y-63132279D01*
X202199485Y-63132279D02*
X202247866Y-63180659D01*
X202247866Y-63180659D02*
X202296247Y-63277421D01*
X202296247Y-63277421D02*
X202296247Y-64099898D01*
X203215485Y-64099898D02*
X203021961Y-64099898D01*
X203021961Y-64099898D02*
X202925199Y-64051517D01*
X202925199Y-64051517D02*
X202876818Y-64003136D01*
X202876818Y-64003136D02*
X202780056Y-63857993D01*
X202780056Y-63857993D02*
X202731675Y-63664469D01*
X202731675Y-63664469D02*
X202731675Y-63277421D01*
X202731675Y-63277421D02*
X202780056Y-63180659D01*
X202780056Y-63180659D02*
X202828437Y-63132279D01*
X202828437Y-63132279D02*
X202925199Y-63083898D01*
X202925199Y-63083898D02*
X203118723Y-63083898D01*
X203118723Y-63083898D02*
X203215485Y-63132279D01*
X203215485Y-63132279D02*
X203263866Y-63180659D01*
X203263866Y-63180659D02*
X203312247Y-63277421D01*
X203312247Y-63277421D02*
X203312247Y-63519326D01*
X203312247Y-63519326D02*
X203263866Y-63616088D01*
X203263866Y-63616088D02*
X203215485Y-63664469D01*
X203215485Y-63664469D02*
X203118723Y-63712850D01*
X203118723Y-63712850D02*
X202925199Y-63712850D01*
X202925199Y-63712850D02*
X202828437Y-63664469D01*
X202828437Y-63664469D02*
X202780056Y-63616088D01*
X202780056Y-63616088D02*
X202731675Y-63519326D01*
G36*
X205765395Y-65753347D02*
G01*
X199292681Y-65753347D01*
X199292681Y-64983686D01*
X199405570Y-64983686D01*
X199405570Y-65128829D01*
X199405825Y-65131421D01*
X199405660Y-65132533D01*
X199406482Y-65138096D01*
X199407034Y-65143695D01*
X199407463Y-65144732D01*
X199407845Y-65147310D01*
X199456226Y-65340834D01*
X199456618Y-65341931D01*
X199456657Y-65342479D01*
X199459020Y-65348655D01*
X199461252Y-65354901D01*
X199461579Y-65355343D01*
X199461996Y-65356431D01*
X199510377Y-65453192D01*
X199514403Y-65459589D01*
X199515174Y-65461449D01*
X199516891Y-65463541D01*
X199518334Y-65465834D01*
X199519853Y-65467152D01*
X199524650Y-65472997D01*
X199621412Y-65569758D01*
X199632959Y-65579235D01*
X199635488Y-65580282D01*
X199637557Y-65582077D01*
X199651197Y-65588167D01*
X199796340Y-65636548D01*
X199803713Y-65638224D01*
X199805571Y-65638994D01*
X199808263Y-65639259D01*
X199810906Y-65639860D01*
X199812914Y-65639717D01*
X199820437Y-65640458D01*
X199917199Y-65640458D01*
X199924720Y-65639717D01*
X199926729Y-65639860D01*
X199929371Y-65639259D01*
X199932065Y-65638994D01*
X199933923Y-65638224D01*
X199941296Y-65636548D01*
X200086438Y-65588167D01*
X200100079Y-65582077D01*
X200102148Y-65580281D01*
X200104676Y-65579235D01*
X200116224Y-65569759D01*
X200164604Y-65521378D01*
X200174081Y-65509831D01*
X200185458Y-65482362D01*
X200185458Y-65452630D01*
X200174081Y-65425162D01*
X200153057Y-65404138D01*
X200125589Y-65392761D01*
X200095857Y-65392761D01*
X200068388Y-65404138D01*
X200056841Y-65413615D01*
X200021179Y-65449275D01*
X199904832Y-65488058D01*
X199832803Y-65488058D01*
X199716455Y-65449275D01*
X199641156Y-65373975D01*
X199602047Y-65295758D01*
X199557970Y-65119448D01*
X199557970Y-64993067D01*
X199602047Y-64816757D01*
X199641156Y-64738538D01*
X199716454Y-64663241D01*
X199832803Y-64624458D01*
X199904832Y-64624458D01*
X200021181Y-64663241D01*
X200056842Y-64698901D01*
X200068389Y-64708377D01*
X200095857Y-64719754D01*
X200125590Y-64719754D01*
X200153058Y-64708376D01*
X200174081Y-64687353D01*
X200185458Y-64659884D01*
X200185458Y-64630152D01*
X200174080Y-64602684D01*
X200164604Y-64591137D01*
X200121724Y-64548258D01*
X200469951Y-64548258D01*
X200469951Y-65564258D01*
X200471415Y-65579124D01*
X200482793Y-65606592D01*
X200503817Y-65627616D01*
X200531285Y-65638994D01*
X200561017Y-65638994D01*
X200588485Y-65627616D01*
X200609509Y-65606592D01*
X200620887Y-65579124D01*
X200622351Y-65564258D01*
X200622351Y-65156648D01*
X201050523Y-65156648D01*
X201050523Y-65564258D01*
X201051987Y-65579124D01*
X201063365Y-65606592D01*
X201084389Y-65627616D01*
X201111857Y-65638994D01*
X201141589Y-65638994D01*
X201169057Y-65627616D01*
X201190081Y-65606592D01*
X201201459Y-65579124D01*
X201202923Y-65564258D01*
X201202923Y-65283502D01*
X201486550Y-65283502D01*
X201495952Y-65311709D01*
X201515431Y-65334170D01*
X201528073Y-65342127D01*
X201613773Y-65384977D01*
X201696459Y-65467662D01*
X201789035Y-65606526D01*
X201789068Y-65606567D01*
X201789079Y-65606592D01*
X201789134Y-65606647D01*
X201798499Y-65618083D01*
X201804768Y-65622281D01*
X201810103Y-65627616D01*
X201817000Y-65630472D01*
X201823203Y-65634627D01*
X201830599Y-65636106D01*
X201837571Y-65638994D01*
X201845038Y-65638994D01*
X201852358Y-65640458D01*
X201859758Y-65638994D01*
X201867303Y-65638994D01*
X201874200Y-65636136D01*
X201881524Y-65634688D01*
X201887801Y-65630502D01*
X201894771Y-65627616D01*
X201900049Y-65622338D01*
X201906262Y-65618196D01*
X201910460Y-65611926D01*
X201915795Y-65606592D01*
X201918651Y-65599694D01*
X201922806Y-65593492D01*
X201924285Y-65586095D01*
X201927173Y-65579124D01*
X201928621Y-65564413D01*
X201928637Y-65564337D01*
X201928631Y-65564310D01*
X201928637Y-65564258D01*
X201928637Y-64624458D01*
X202142723Y-64624458D01*
X202157589Y-64622994D01*
X202185057Y-64611616D01*
X202206081Y-64590592D01*
X202217459Y-64563124D01*
X202217459Y-64548258D01*
X203276046Y-64548258D01*
X203276046Y-65564258D01*
X203277008Y-65574034D01*
X203276930Y-65575827D01*
X203277280Y-65576790D01*
X203277510Y-65579124D01*
X203282572Y-65591345D01*
X203287090Y-65603770D01*
X203288238Y-65605024D01*
X203288888Y-65606592D01*
X203298228Y-65615932D01*
X203307170Y-65625696D01*
X203308711Y-65626415D01*
X203309912Y-65627616D01*
X203322128Y-65632676D01*
X203334113Y-65638269D01*
X203335809Y-65638343D01*
X203337380Y-65638994D01*
X203350614Y-65638994D01*
X203363815Y-65639574D01*
X203365410Y-65638994D01*
X203367112Y-65638994D01*
X203379333Y-65633931D01*
X203391758Y-65629414D01*
X203393012Y-65628265D01*
X203394580Y-65627616D01*
X203403920Y-65618275D01*
X203413684Y-65609334D01*
X203414878Y-65607317D01*
X203415604Y-65606592D01*
X203416291Y-65604931D01*
X203421297Y-65596482D01*
X203690913Y-65018733D01*
X203960529Y-65596482D01*
X203965534Y-65604931D01*
X203966222Y-65606592D01*
X203966947Y-65607317D01*
X203968142Y-65609334D01*
X203977900Y-65618270D01*
X203987246Y-65627616D01*
X203988815Y-65628266D01*
X203990068Y-65629413D01*
X204002481Y-65633926D01*
X204014714Y-65638994D01*
X204016416Y-65638994D01*
X204018011Y-65639574D01*
X204031212Y-65638994D01*
X204044446Y-65638994D01*
X204046016Y-65638343D01*
X204047713Y-65638269D01*
X204059697Y-65632676D01*
X204071914Y-65627616D01*
X204073114Y-65626415D01*
X204074656Y-65625696D01*
X204083592Y-65615937D01*
X204092938Y-65606592D01*
X204093588Y-65605022D01*
X204094736Y-65603769D01*
X204099251Y-65591349D01*
X204104316Y-65579124D01*
X204104545Y-65576789D01*
X204104896Y-65575827D01*
X204104817Y-65574034D01*
X204105780Y-65564258D01*
X204105780Y-64548258D01*
X204437189Y-64548258D01*
X204437189Y-65564258D01*
X204438653Y-65579124D01*
X204450031Y-65606592D01*
X204471055Y-65627616D01*
X204498523Y-65638994D01*
X204528255Y-65638994D01*
X204555723Y-65627616D01*
X204576747Y-65606592D01*
X204588125Y-65579124D01*
X204589589Y-65564258D01*
X204589589Y-64983686D01*
X204872618Y-64983686D01*
X204872618Y-65128829D01*
X204872873Y-65131421D01*
X204872708Y-65132533D01*
X204873530Y-65138096D01*
X204874082Y-65143695D01*
X204874511Y-65144732D01*
X204874893Y-65147310D01*
X204923274Y-65340834D01*
X204923666Y-65341931D01*
X204923705Y-65342479D01*
X204926068Y-65348655D01*
X204928300Y-65354901D01*
X204928627Y-65355343D01*
X204929044Y-65356431D01*
X204977425Y-65453192D01*
X204981451Y-65459589D01*
X204982222Y-65461449D01*
X204983939Y-65463541D01*
X204985382Y-65465834D01*
X204986901Y-65467152D01*
X204991698Y-65472997D01*
X205088460Y-65569758D01*
X205100007Y-65579235D01*
X205102536Y-65580282D01*
X205104605Y-65582077D01*
X205118245Y-65588167D01*
X205263388Y-65636548D01*
X205270761Y-65638224D01*
X205272619Y-65638994D01*
X205275311Y-65639259D01*
X205277954Y-65639860D01*
X205279962Y-65639717D01*
X205287485Y-65640458D01*
X205384247Y-65640458D01*
X205391768Y-65639717D01*
X205393777Y-65639860D01*
X205396419Y-65639259D01*
X205399113Y-65638994D01*
X205400971Y-65638224D01*
X205408344Y-65636548D01*
X205553486Y-65588167D01*
X205567127Y-65582077D01*
X205569196Y-65580281D01*
X205571724Y-65579235D01*
X205583272Y-65569759D01*
X205631652Y-65521378D01*
X205641129Y-65509831D01*
X205652506Y-65482362D01*
X205652506Y-65452630D01*
X205641129Y-65425162D01*
X205620105Y-65404138D01*
X205592637Y-65392761D01*
X205562905Y-65392761D01*
X205535436Y-65404138D01*
X205523889Y-65413615D01*
X205488227Y-65449275D01*
X205371880Y-65488058D01*
X205299851Y-65488058D01*
X205183503Y-65449275D01*
X205108204Y-65373975D01*
X205069095Y-65295758D01*
X205025018Y-65119448D01*
X205025018Y-64993067D01*
X205069095Y-64816757D01*
X205108204Y-64738538D01*
X205183502Y-64663241D01*
X205299851Y-64624458D01*
X205371880Y-64624458D01*
X205488229Y-64663241D01*
X205523890Y-64698901D01*
X205535437Y-64708377D01*
X205562905Y-64719754D01*
X205592638Y-64719754D01*
X205620106Y-64708376D01*
X205641129Y-64687353D01*
X205652506Y-64659884D01*
X205652506Y-64630152D01*
X205641128Y-64602684D01*
X205631652Y-64591137D01*
X205583271Y-64542757D01*
X205571724Y-64533280D01*
X205569194Y-64532232D01*
X205567127Y-64530439D01*
X205553486Y-64524349D01*
X205408344Y-64475968D01*
X205400971Y-64474291D01*
X205399113Y-64473522D01*
X205396419Y-64473256D01*
X205393777Y-64472656D01*
X205391768Y-64472798D01*
X205384247Y-64472058D01*
X205287485Y-64472058D01*
X205279962Y-64472798D01*
X205277954Y-64472656D01*
X205275311Y-64473256D01*
X205272619Y-64473522D01*
X205270761Y-64474291D01*
X205263388Y-64475968D01*
X205118245Y-64524349D01*
X205104605Y-64530439D01*
X205102535Y-64532234D01*
X205100008Y-64533281D01*
X205088460Y-64542757D01*
X204991699Y-64639518D01*
X204986902Y-64645362D01*
X204985382Y-64646681D01*
X204983940Y-64648970D01*
X204982222Y-64651065D01*
X204981450Y-64652926D01*
X204977425Y-64659323D01*
X204929044Y-64756084D01*
X204928627Y-64757171D01*
X204928300Y-64757614D01*
X204926068Y-64763859D01*
X204923705Y-64770036D01*
X204923666Y-64770583D01*
X204923274Y-64771681D01*
X204874893Y-64965205D01*
X204874511Y-64967782D01*
X204874082Y-64968820D01*
X204873530Y-64974418D01*
X204872708Y-64979982D01*
X204872873Y-64981093D01*
X204872618Y-64983686D01*
X204589589Y-64983686D01*
X204589589Y-64548258D01*
X204588125Y-64533392D01*
X204576747Y-64505924D01*
X204555723Y-64484900D01*
X204528255Y-64473522D01*
X204498523Y-64473522D01*
X204471055Y-64484900D01*
X204450031Y-64505924D01*
X204438653Y-64533392D01*
X204437189Y-64548258D01*
X204105780Y-64548258D01*
X204104316Y-64533392D01*
X204092938Y-64505924D01*
X204071914Y-64484900D01*
X204044446Y-64473522D01*
X204014714Y-64473522D01*
X203987246Y-64484900D01*
X203966222Y-64505924D01*
X203954844Y-64533392D01*
X203953380Y-64548258D01*
X203953380Y-65220781D01*
X203759964Y-64806319D01*
X203756739Y-64800874D01*
X203756069Y-64799032D01*
X203754875Y-64797728D01*
X203752351Y-64793467D01*
X203743808Y-64785643D01*
X203735989Y-64777105D01*
X203732922Y-64775673D01*
X203730425Y-64773387D01*
X203719541Y-64769429D01*
X203709046Y-64764532D01*
X203705662Y-64764383D01*
X203702482Y-64763227D01*
X203690913Y-64763735D01*
X203679344Y-64763227D01*
X203676164Y-64764383D01*
X203672780Y-64764532D01*
X203662278Y-64769432D01*
X203651401Y-64773388D01*
X203648905Y-64775672D01*
X203645837Y-64777105D01*
X203638013Y-64785647D01*
X203629475Y-64793467D01*
X203626952Y-64797725D01*
X203625757Y-64799031D01*
X203625086Y-64800876D01*
X203621862Y-64806319D01*
X203428446Y-65220781D01*
X203428446Y-64548258D01*
X203426982Y-64533392D01*
X203415604Y-64505924D01*
X203394580Y-64484900D01*
X203367112Y-64473522D01*
X203337380Y-64473522D01*
X203309912Y-64484900D01*
X203288888Y-64505924D01*
X203277510Y-64533392D01*
X203276046Y-64548258D01*
X202217459Y-64548258D01*
X202217459Y-64533392D01*
X202206081Y-64505924D01*
X202185057Y-64484900D01*
X202157589Y-64473522D01*
X202142723Y-64472058D01*
X201562151Y-64472058D01*
X201547285Y-64473522D01*
X201519817Y-64484900D01*
X201498793Y-64505924D01*
X201487415Y-64533392D01*
X201487415Y-64563124D01*
X201498793Y-64590592D01*
X201519817Y-64611616D01*
X201547285Y-64622994D01*
X201562151Y-64624458D01*
X201776237Y-64624458D01*
X201776237Y-65331913D01*
X201712795Y-65268471D01*
X201706950Y-65263674D01*
X201705632Y-65262155D01*
X201703339Y-65260712D01*
X201701247Y-65258995D01*
X201699387Y-65258224D01*
X201692990Y-65254198D01*
X201596229Y-65205817D01*
X201582277Y-65200478D01*
X201552621Y-65198371D01*
X201524414Y-65207773D01*
X201501953Y-65227252D01*
X201488657Y-65253846D01*
X201486550Y-65283502D01*
X201202923Y-65283502D01*
X201202923Y-64548258D01*
X201201459Y-64533392D01*
X201190081Y-64505924D01*
X201169057Y-64484900D01*
X201141589Y-64473522D01*
X201111857Y-64473522D01*
X201084389Y-64484900D01*
X201063365Y-64505924D01*
X201051987Y-64533392D01*
X201050523Y-64548258D01*
X201050523Y-65004248D01*
X200622351Y-65004248D01*
X200622351Y-64548258D01*
X200620887Y-64533392D01*
X200609509Y-64505924D01*
X200588485Y-64484900D01*
X200561017Y-64473522D01*
X200531285Y-64473522D01*
X200503817Y-64484900D01*
X200482793Y-64505924D01*
X200471415Y-64533392D01*
X200469951Y-64548258D01*
X200121724Y-64548258D01*
X200116223Y-64542757D01*
X200104676Y-64533280D01*
X200102146Y-64532232D01*
X200100079Y-64530439D01*
X200086438Y-64524349D01*
X199941296Y-64475968D01*
X199933923Y-64474291D01*
X199932065Y-64473522D01*
X199929371Y-64473256D01*
X199926729Y-64472656D01*
X199924720Y-64472798D01*
X199917199Y-64472058D01*
X199820437Y-64472058D01*
X199812914Y-64472798D01*
X199810906Y-64472656D01*
X199808263Y-64473256D01*
X199805571Y-64473522D01*
X199803713Y-64474291D01*
X199796340Y-64475968D01*
X199651197Y-64524349D01*
X199637557Y-64530439D01*
X199635487Y-64532234D01*
X199632960Y-64533281D01*
X199621412Y-64542757D01*
X199524651Y-64639518D01*
X199519854Y-64645362D01*
X199518334Y-64646681D01*
X199516892Y-64648970D01*
X199515174Y-64651065D01*
X199514402Y-64652926D01*
X199510377Y-64659323D01*
X199461996Y-64756084D01*
X199461579Y-64757171D01*
X199461252Y-64757614D01*
X199459020Y-64763859D01*
X199456657Y-64770036D01*
X199456618Y-64770583D01*
X199456226Y-64771681D01*
X199407845Y-64965205D01*
X199407463Y-64967782D01*
X199407034Y-64968820D01*
X199406482Y-64974418D01*
X199405660Y-64979982D01*
X199405825Y-64981093D01*
X199405570Y-64983686D01*
X199292681Y-64983686D01*
X199292681Y-64359169D01*
X205765395Y-64359169D01*
X205765395Y-65753347D01*
G37*
X210571106Y-68202969D02*
X210571106Y-67719159D01*
X210571106Y-67719159D02*
X209555106Y-67719159D01*
X210571106Y-69122207D02*
X210087297Y-68783540D01*
X210571106Y-68541635D02*
X209555106Y-68541635D01*
X209555106Y-68541635D02*
X209555106Y-68928683D01*
X209555106Y-68928683D02*
X209603487Y-69025445D01*
X209603487Y-69025445D02*
X209651868Y-69073826D01*
X209651868Y-69073826D02*
X209748630Y-69122207D01*
X209748630Y-69122207D02*
X209893773Y-69122207D01*
X209893773Y-69122207D02*
X209990535Y-69073826D01*
X209990535Y-69073826D02*
X210038916Y-69025445D01*
X210038916Y-69025445D02*
X210087297Y-68928683D01*
X210087297Y-68928683D02*
X210087297Y-68541635D01*
X202826526Y-66712835D02*
X202874906Y-66857978D01*
X202874906Y-66857978D02*
X202874906Y-67099883D01*
X202874906Y-67099883D02*
X202826526Y-67196645D01*
X202826526Y-67196645D02*
X202778145Y-67245026D01*
X202778145Y-67245026D02*
X202681383Y-67293407D01*
X202681383Y-67293407D02*
X202584621Y-67293407D01*
X202584621Y-67293407D02*
X202487859Y-67245026D01*
X202487859Y-67245026D02*
X202439478Y-67196645D01*
X202439478Y-67196645D02*
X202391097Y-67099883D01*
X202391097Y-67099883D02*
X202342716Y-66906359D01*
X202342716Y-66906359D02*
X202294335Y-66809597D01*
X202294335Y-66809597D02*
X202245954Y-66761216D01*
X202245954Y-66761216D02*
X202149192Y-66712835D01*
X202149192Y-66712835D02*
X202052430Y-66712835D01*
X202052430Y-66712835D02*
X201955668Y-66761216D01*
X201955668Y-66761216D02*
X201907287Y-66809597D01*
X201907287Y-66809597D02*
X201858906Y-66906359D01*
X201858906Y-66906359D02*
X201858906Y-67148264D01*
X201858906Y-67148264D02*
X201907287Y-67293407D01*
X202778145Y-68309407D02*
X202826526Y-68261026D01*
X202826526Y-68261026D02*
X202874906Y-68115883D01*
X202874906Y-68115883D02*
X202874906Y-68019121D01*
X202874906Y-68019121D02*
X202826526Y-67873978D01*
X202826526Y-67873978D02*
X202729764Y-67777216D01*
X202729764Y-67777216D02*
X202633002Y-67728835D01*
X202633002Y-67728835D02*
X202439478Y-67680454D01*
X202439478Y-67680454D02*
X202294335Y-67680454D01*
X202294335Y-67680454D02*
X202100811Y-67728835D01*
X202100811Y-67728835D02*
X202004049Y-67777216D01*
X202004049Y-67777216D02*
X201907287Y-67873978D01*
X201907287Y-67873978D02*
X201858906Y-68019121D01*
X201858906Y-68019121D02*
X201858906Y-68115883D01*
X201858906Y-68115883D02*
X201907287Y-68261026D01*
X201907287Y-68261026D02*
X201955668Y-68309407D01*
X202874906Y-68744835D02*
X201858906Y-68744835D01*
X202874906Y-69325407D02*
X202294335Y-68889978D01*
X201858906Y-69325407D02*
X202439478Y-68744835D01*
X199369706Y-66712835D02*
X200385706Y-67051502D01*
X200385706Y-67051502D02*
X199369706Y-67390169D01*
X200288945Y-68309407D02*
X200337326Y-68261026D01*
X200337326Y-68261026D02*
X200385706Y-68115883D01*
X200385706Y-68115883D02*
X200385706Y-68019121D01*
X200385706Y-68019121D02*
X200337326Y-67873978D01*
X200337326Y-67873978D02*
X200240564Y-67777216D01*
X200240564Y-67777216D02*
X200143802Y-67728835D01*
X200143802Y-67728835D02*
X199950278Y-67680454D01*
X199950278Y-67680454D02*
X199805135Y-67680454D01*
X199805135Y-67680454D02*
X199611611Y-67728835D01*
X199611611Y-67728835D02*
X199514849Y-67777216D01*
X199514849Y-67777216D02*
X199418087Y-67873978D01*
X199418087Y-67873978D02*
X199369706Y-68019121D01*
X199369706Y-68019121D02*
X199369706Y-68115883D01*
X199369706Y-68115883D02*
X199418087Y-68261026D01*
X199418087Y-68261026D02*
X199466468Y-68309407D01*
X200288945Y-69325407D02*
X200337326Y-69277026D01*
X200337326Y-69277026D02*
X200385706Y-69131883D01*
X200385706Y-69131883D02*
X200385706Y-69035121D01*
X200385706Y-69035121D02*
X200337326Y-68889978D01*
X200337326Y-68889978D02*
X200240564Y-68793216D01*
X200240564Y-68793216D02*
X200143802Y-68744835D01*
X200143802Y-68744835D02*
X199950278Y-68696454D01*
X199950278Y-68696454D02*
X199805135Y-68696454D01*
X199805135Y-68696454D02*
X199611611Y-68744835D01*
X199611611Y-68744835D02*
X199514849Y-68793216D01*
X199514849Y-68793216D02*
X199418087Y-68889978D01*
X199418087Y-68889978D02*
X199369706Y-69035121D01*
X199369706Y-69035121D02*
X199369706Y-69131883D01*
X199369706Y-69131883D02*
X199418087Y-69277026D01*
X199418087Y-69277026D02*
X199466468Y-69325407D01*
X205417326Y-67500235D02*
X205465706Y-67645378D01*
X205465706Y-67645378D02*
X205465706Y-67887283D01*
X205465706Y-67887283D02*
X205417326Y-67984045D01*
X205417326Y-67984045D02*
X205368945Y-68032426D01*
X205368945Y-68032426D02*
X205272183Y-68080807D01*
X205272183Y-68080807D02*
X205175421Y-68080807D01*
X205175421Y-68080807D02*
X205078659Y-68032426D01*
X205078659Y-68032426D02*
X205030278Y-67984045D01*
X205030278Y-67984045D02*
X204981897Y-67887283D01*
X204981897Y-67887283D02*
X204933516Y-67693759D01*
X204933516Y-67693759D02*
X204885135Y-67596997D01*
X204885135Y-67596997D02*
X204836754Y-67548616D01*
X204836754Y-67548616D02*
X204739992Y-67500235D01*
X204739992Y-67500235D02*
X204643230Y-67500235D01*
X204643230Y-67500235D02*
X204546468Y-67548616D01*
X204546468Y-67548616D02*
X204498087Y-67596997D01*
X204498087Y-67596997D02*
X204449706Y-67693759D01*
X204449706Y-67693759D02*
X204449706Y-67935664D01*
X204449706Y-67935664D02*
X204498087Y-68080807D01*
X205465706Y-68516235D02*
X204449706Y-68516235D01*
X204449706Y-68516235D02*
X204449706Y-68758140D01*
X204449706Y-68758140D02*
X204498087Y-68903283D01*
X204498087Y-68903283D02*
X204594849Y-69000045D01*
X204594849Y-69000045D02*
X204691611Y-69048426D01*
X204691611Y-69048426D02*
X204885135Y-69096807D01*
X204885135Y-69096807D02*
X205030278Y-69096807D01*
X205030278Y-69096807D02*
X205223802Y-69048426D01*
X205223802Y-69048426D02*
X205320564Y-69000045D01*
X205320564Y-69000045D02*
X205417326Y-68903283D01*
X205417326Y-68903283D02*
X205465706Y-68758140D01*
X205465706Y-68758140D02*
X205465706Y-68516235D01*
X207015106Y-67255911D02*
X208031106Y-67497816D01*
X208031106Y-67497816D02*
X207305392Y-67691340D01*
X207305392Y-67691340D02*
X208031106Y-67884864D01*
X208031106Y-67884864D02*
X207015106Y-68126769D01*
X207982726Y-68465435D02*
X208031106Y-68610578D01*
X208031106Y-68610578D02*
X208031106Y-68852483D01*
X208031106Y-68852483D02*
X207982726Y-68949245D01*
X207982726Y-68949245D02*
X207934345Y-68997626D01*
X207934345Y-68997626D02*
X207837583Y-69046007D01*
X207837583Y-69046007D02*
X207740821Y-69046007D01*
X207740821Y-69046007D02*
X207644059Y-68997626D01*
X207644059Y-68997626D02*
X207595678Y-68949245D01*
X207595678Y-68949245D02*
X207547297Y-68852483D01*
X207547297Y-68852483D02*
X207498916Y-68658959D01*
X207498916Y-68658959D02*
X207450535Y-68562197D01*
X207450535Y-68562197D02*
X207402154Y-68513816D01*
X207402154Y-68513816D02*
X207305392Y-68465435D01*
X207305392Y-68465435D02*
X207208630Y-68465435D01*
X207208630Y-68465435D02*
X207111868Y-68513816D01*
X207111868Y-68513816D02*
X207063487Y-68562197D01*
X207063487Y-68562197D02*
X207015106Y-68658959D01*
X207015106Y-68658959D02*
X207015106Y-68900864D01*
X207015106Y-68900864D02*
X207063487Y-69046007D01*
X212118087Y-66993445D02*
X212069706Y-66896683D01*
X212069706Y-66896683D02*
X212069706Y-66751540D01*
X212069706Y-66751540D02*
X212118087Y-66606397D01*
X212118087Y-66606397D02*
X212214849Y-66509635D01*
X212214849Y-66509635D02*
X212311611Y-66461254D01*
X212311611Y-66461254D02*
X212505135Y-66412873D01*
X212505135Y-66412873D02*
X212650278Y-66412873D01*
X212650278Y-66412873D02*
X212843802Y-66461254D01*
X212843802Y-66461254D02*
X212940564Y-66509635D01*
X212940564Y-66509635D02*
X213037326Y-66606397D01*
X213037326Y-66606397D02*
X213085706Y-66751540D01*
X213085706Y-66751540D02*
X213085706Y-66848302D01*
X213085706Y-66848302D02*
X213037326Y-66993445D01*
X213037326Y-66993445D02*
X212988945Y-67041826D01*
X212988945Y-67041826D02*
X212650278Y-67041826D01*
X212650278Y-67041826D02*
X212650278Y-66848302D01*
X213085706Y-67477254D02*
X212069706Y-67477254D01*
X212069706Y-67477254D02*
X213085706Y-68057826D01*
X213085706Y-68057826D02*
X212069706Y-68057826D01*
X213085706Y-68541635D02*
X212069706Y-68541635D01*
X212069706Y-68541635D02*
X212069706Y-68783540D01*
X212069706Y-68783540D02*
X212118087Y-68928683D01*
X212118087Y-68928683D02*
X212214849Y-69025445D01*
X212214849Y-69025445D02*
X212311611Y-69073826D01*
X212311611Y-69073826D02*
X212505135Y-69122207D01*
X212505135Y-69122207D02*
X212650278Y-69122207D01*
X212650278Y-69122207D02*
X212843802Y-69073826D01*
X212843802Y-69073826D02*
X212940564Y-69025445D01*
X212940564Y-69025445D02*
X213037326Y-68928683D01*
X213037326Y-68928683D02*
X213085706Y-68783540D01*
X213085706Y-68783540D02*
X213085706Y-68541635D01*
X177177891Y-87097180D02*
X177129510Y-87048800D01*
X177129510Y-87048800D02*
X176984367Y-87000419D01*
X176984367Y-87000419D02*
X176887605Y-87000419D01*
X176887605Y-87000419D02*
X176742462Y-87048800D01*
X176742462Y-87048800D02*
X176645700Y-87145561D01*
X176645700Y-87145561D02*
X176597319Y-87242323D01*
X176597319Y-87242323D02*
X176548938Y-87435847D01*
X176548938Y-87435847D02*
X176548938Y-87580990D01*
X176548938Y-87580990D02*
X176597319Y-87774514D01*
X176597319Y-87774514D02*
X176645700Y-87871276D01*
X176645700Y-87871276D02*
X176742462Y-87968038D01*
X176742462Y-87968038D02*
X176887605Y-88016419D01*
X176887605Y-88016419D02*
X176984367Y-88016419D01*
X176984367Y-88016419D02*
X177129510Y-87968038D01*
X177129510Y-87968038D02*
X177177891Y-87919657D01*
X177564938Y-87048800D02*
X177710081Y-87000419D01*
X177710081Y-87000419D02*
X177951986Y-87000419D01*
X177951986Y-87000419D02*
X178048748Y-87048800D01*
X178048748Y-87048800D02*
X178097129Y-87097180D01*
X178097129Y-87097180D02*
X178145510Y-87193942D01*
X178145510Y-87193942D02*
X178145510Y-87290704D01*
X178145510Y-87290704D02*
X178097129Y-87387466D01*
X178097129Y-87387466D02*
X178048748Y-87435847D01*
X178048748Y-87435847D02*
X177951986Y-87484228D01*
X177951986Y-87484228D02*
X177758462Y-87532609D01*
X177758462Y-87532609D02*
X177661700Y-87580990D01*
X177661700Y-87580990D02*
X177613319Y-87629371D01*
X177613319Y-87629371D02*
X177564938Y-87726133D01*
X177564938Y-87726133D02*
X177564938Y-87822895D01*
X177564938Y-87822895D02*
X177613319Y-87919657D01*
X177613319Y-87919657D02*
X177661700Y-87968038D01*
X177661700Y-87968038D02*
X177758462Y-88016419D01*
X177758462Y-88016419D02*
X178000367Y-88016419D01*
X178000367Y-88016419D02*
X178145510Y-87968038D01*
X176062710Y-93022638D02*
X175965948Y-93071019D01*
X175965948Y-93071019D02*
X175820805Y-93071019D01*
X175820805Y-93071019D02*
X175675662Y-93022638D01*
X175675662Y-93022638D02*
X175578900Y-92925876D01*
X175578900Y-92925876D02*
X175530519Y-92829114D01*
X175530519Y-92829114D02*
X175482138Y-92635590D01*
X175482138Y-92635590D02*
X175482138Y-92490447D01*
X175482138Y-92490447D02*
X175530519Y-92296923D01*
X175530519Y-92296923D02*
X175578900Y-92200161D01*
X175578900Y-92200161D02*
X175675662Y-92103400D01*
X175675662Y-92103400D02*
X175820805Y-92055019D01*
X175820805Y-92055019D02*
X175917567Y-92055019D01*
X175917567Y-92055019D02*
X176062710Y-92103400D01*
X176062710Y-92103400D02*
X176111091Y-92151780D01*
X176111091Y-92151780D02*
X176111091Y-92490447D01*
X176111091Y-92490447D02*
X175917567Y-92490447D01*
X176546519Y-92055019D02*
X176546519Y-93071019D01*
X176546519Y-93071019D02*
X177127091Y-92055019D01*
X177127091Y-92055019D02*
X177127091Y-93071019D01*
X177610900Y-92055019D02*
X177610900Y-93071019D01*
X177610900Y-93071019D02*
X177852805Y-93071019D01*
X177852805Y-93071019D02*
X177997948Y-93022638D01*
X177997948Y-93022638D02*
X178094710Y-92925876D01*
X178094710Y-92925876D02*
X178143091Y-92829114D01*
X178143091Y-92829114D02*
X178191472Y-92635590D01*
X178191472Y-92635590D02*
X178191472Y-92490447D01*
X178191472Y-92490447D02*
X178143091Y-92296923D01*
X178143091Y-92296923D02*
X178094710Y-92200161D01*
X178094710Y-92200161D02*
X177997948Y-92103400D01*
X177997948Y-92103400D02*
X177852805Y-92055019D01*
X177852805Y-92055019D02*
X177610900Y-92055019D01*
X177177891Y-89611780D02*
X177129510Y-89563400D01*
X177129510Y-89563400D02*
X176984367Y-89515019D01*
X176984367Y-89515019D02*
X176887605Y-89515019D01*
X176887605Y-89515019D02*
X176742462Y-89563400D01*
X176742462Y-89563400D02*
X176645700Y-89660161D01*
X176645700Y-89660161D02*
X176597319Y-89756923D01*
X176597319Y-89756923D02*
X176548938Y-89950447D01*
X176548938Y-89950447D02*
X176548938Y-90095590D01*
X176548938Y-90095590D02*
X176597319Y-90289114D01*
X176597319Y-90289114D02*
X176645700Y-90385876D01*
X176645700Y-90385876D02*
X176742462Y-90482638D01*
X176742462Y-90482638D02*
X176887605Y-90531019D01*
X176887605Y-90531019D02*
X176984367Y-90531019D01*
X176984367Y-90531019D02*
X177129510Y-90482638D01*
X177129510Y-90482638D02*
X177177891Y-90434257D01*
X177613319Y-89515019D02*
X177613319Y-90531019D01*
X177613319Y-90531019D02*
X177855224Y-90531019D01*
X177855224Y-90531019D02*
X178000367Y-90482638D01*
X178000367Y-90482638D02*
X178097129Y-90385876D01*
X178097129Y-90385876D02*
X178145510Y-90289114D01*
X178145510Y-90289114D02*
X178193891Y-90095590D01*
X178193891Y-90095590D02*
X178193891Y-89950447D01*
X178193891Y-89950447D02*
X178145510Y-89756923D01*
X178145510Y-89756923D02*
X178097129Y-89660161D01*
X178097129Y-89660161D02*
X178000367Y-89563400D01*
X178000367Y-89563400D02*
X177855224Y-89515019D01*
X177855224Y-89515019D02*
X177613319Y-89515019D01*
X178046584Y-82798890D02*
X178046584Y-81782890D01*
X178046584Y-81782890D02*
X177707917Y-82508605D01*
X177707917Y-82508605D02*
X177369250Y-81782890D01*
X177369250Y-81782890D02*
X177369250Y-82798890D01*
X176691917Y-81782890D02*
X176498393Y-81782890D01*
X176498393Y-81782890D02*
X176401631Y-81831271D01*
X176401631Y-81831271D02*
X176304869Y-81928033D01*
X176304869Y-81928033D02*
X176256488Y-82121557D01*
X176256488Y-82121557D02*
X176256488Y-82460224D01*
X176256488Y-82460224D02*
X176304869Y-82653748D01*
X176304869Y-82653748D02*
X176401631Y-82750510D01*
X176401631Y-82750510D02*
X176498393Y-82798890D01*
X176498393Y-82798890D02*
X176691917Y-82798890D01*
X176691917Y-82798890D02*
X176788679Y-82750510D01*
X176788679Y-82750510D02*
X176885441Y-82653748D01*
X176885441Y-82653748D02*
X176933822Y-82460224D01*
X176933822Y-82460224D02*
X176933822Y-82121557D01*
X176933822Y-82121557D02*
X176885441Y-81928033D01*
X176885441Y-81928033D02*
X176788679Y-81831271D01*
X176788679Y-81831271D02*
X176691917Y-81782890D01*
X178148184Y-85338890D02*
X178148184Y-84322890D01*
X178148184Y-84322890D02*
X177809517Y-85048605D01*
X177809517Y-85048605D02*
X177470850Y-84322890D01*
X177470850Y-84322890D02*
X177470850Y-85338890D01*
X176987041Y-85338890D02*
X176987041Y-84322890D01*
X176597319Y-94468019D02*
X176597319Y-95484019D01*
X176597319Y-95484019D02*
X176839224Y-95484019D01*
X176839224Y-95484019D02*
X176984367Y-95435638D01*
X176984367Y-95435638D02*
X177081129Y-95338876D01*
X177081129Y-95338876D02*
X177129510Y-95242114D01*
X177129510Y-95242114D02*
X177177891Y-95048590D01*
X177177891Y-95048590D02*
X177177891Y-94903447D01*
X177177891Y-94903447D02*
X177129510Y-94709923D01*
X177129510Y-94709923D02*
X177081129Y-94613161D01*
X177081129Y-94613161D02*
X176984367Y-94516400D01*
X176984367Y-94516400D02*
X176839224Y-94468019D01*
X176839224Y-94468019D02*
X176597319Y-94468019D01*
X177564938Y-95387257D02*
X177613319Y-95435638D01*
X177613319Y-95435638D02*
X177710081Y-95484019D01*
X177710081Y-95484019D02*
X177951986Y-95484019D01*
X177951986Y-95484019D02*
X178048748Y-95435638D01*
X178048748Y-95435638D02*
X178097129Y-95387257D01*
X178097129Y-95387257D02*
X178145510Y-95290495D01*
X178145510Y-95290495D02*
X178145510Y-95193733D01*
X178145510Y-95193733D02*
X178097129Y-95048590D01*
X178097129Y-95048590D02*
X177516557Y-94468019D01*
X177516557Y-94468019D02*
X178145510Y-94468019D01*
X175634538Y-79276400D02*
X175779681Y-79228019D01*
X175779681Y-79228019D02*
X176021586Y-79228019D01*
X176021586Y-79228019D02*
X176118348Y-79276400D01*
X176118348Y-79276400D02*
X176166729Y-79324780D01*
X176166729Y-79324780D02*
X176215110Y-79421542D01*
X176215110Y-79421542D02*
X176215110Y-79518304D01*
X176215110Y-79518304D02*
X176166729Y-79615066D01*
X176166729Y-79615066D02*
X176118348Y-79663447D01*
X176118348Y-79663447D02*
X176021586Y-79711828D01*
X176021586Y-79711828D02*
X175828062Y-79760209D01*
X175828062Y-79760209D02*
X175731300Y-79808590D01*
X175731300Y-79808590D02*
X175682919Y-79856971D01*
X175682919Y-79856971D02*
X175634538Y-79953733D01*
X175634538Y-79953733D02*
X175634538Y-80050495D01*
X175634538Y-80050495D02*
X175682919Y-80147257D01*
X175682919Y-80147257D02*
X175731300Y-80195638D01*
X175731300Y-80195638D02*
X175828062Y-80244019D01*
X175828062Y-80244019D02*
X176069967Y-80244019D01*
X176069967Y-80244019D02*
X176215110Y-80195638D01*
X177231110Y-79324780D02*
X177182729Y-79276400D01*
X177182729Y-79276400D02*
X177037586Y-79228019D01*
X177037586Y-79228019D02*
X176940824Y-79228019D01*
X176940824Y-79228019D02*
X176795681Y-79276400D01*
X176795681Y-79276400D02*
X176698919Y-79373161D01*
X176698919Y-79373161D02*
X176650538Y-79469923D01*
X176650538Y-79469923D02*
X176602157Y-79663447D01*
X176602157Y-79663447D02*
X176602157Y-79808590D01*
X176602157Y-79808590D02*
X176650538Y-80002114D01*
X176650538Y-80002114D02*
X176698919Y-80098876D01*
X176698919Y-80098876D02*
X176795681Y-80195638D01*
X176795681Y-80195638D02*
X176940824Y-80244019D01*
X176940824Y-80244019D02*
X177037586Y-80244019D01*
X177037586Y-80244019D02*
X177182729Y-80195638D01*
X177182729Y-80195638D02*
X177231110Y-80147257D01*
X177666538Y-79228019D02*
X177666538Y-80244019D01*
X178247110Y-79228019D02*
X177811681Y-79808590D01*
X178247110Y-80244019D02*
X177666538Y-79663447D01*
X176622719Y-76764219D02*
X176622719Y-77780219D01*
X176622719Y-77780219D02*
X176864624Y-77780219D01*
X176864624Y-77780219D02*
X177009767Y-77731838D01*
X177009767Y-77731838D02*
X177106529Y-77635076D01*
X177106529Y-77635076D02*
X177154910Y-77538314D01*
X177154910Y-77538314D02*
X177203291Y-77344790D01*
X177203291Y-77344790D02*
X177203291Y-77199647D01*
X177203291Y-77199647D02*
X177154910Y-77006123D01*
X177154910Y-77006123D02*
X177106529Y-76909361D01*
X177106529Y-76909361D02*
X177009767Y-76812600D01*
X177009767Y-76812600D02*
X176864624Y-76764219D01*
X176864624Y-76764219D02*
X176622719Y-76764219D01*
X178170910Y-76764219D02*
X177590338Y-76764219D01*
X177880624Y-76764219D02*
X177880624Y-77780219D01*
X177880624Y-77780219D02*
X177783862Y-77635076D01*
X177783862Y-77635076D02*
X177687100Y-77538314D01*
X177687100Y-77538314D02*
X177590338Y-77489933D01*
X175535357Y-75240219D02*
X176164310Y-75240219D01*
X176164310Y-75240219D02*
X175825643Y-74853171D01*
X175825643Y-74853171D02*
X175970786Y-74853171D01*
X175970786Y-74853171D02*
X176067548Y-74804790D01*
X176067548Y-74804790D02*
X176115929Y-74756409D01*
X176115929Y-74756409D02*
X176164310Y-74659647D01*
X176164310Y-74659647D02*
X176164310Y-74417742D01*
X176164310Y-74417742D02*
X176115929Y-74320980D01*
X176115929Y-74320980D02*
X176067548Y-74272600D01*
X176067548Y-74272600D02*
X175970786Y-74224219D01*
X175970786Y-74224219D02*
X175680500Y-74224219D01*
X175680500Y-74224219D02*
X175583738Y-74272600D01*
X175583738Y-74272600D02*
X175535357Y-74320980D01*
X176454595Y-75240219D02*
X176793262Y-74224219D01*
X176793262Y-74224219D02*
X177131929Y-75240219D01*
X177373833Y-75240219D02*
X178002786Y-75240219D01*
X178002786Y-75240219D02*
X177664119Y-74853171D01*
X177664119Y-74853171D02*
X177809262Y-74853171D01*
X177809262Y-74853171D02*
X177906024Y-74804790D01*
X177906024Y-74804790D02*
X177954405Y-74756409D01*
X177954405Y-74756409D02*
X178002786Y-74659647D01*
X178002786Y-74659647D02*
X178002786Y-74417742D01*
X178002786Y-74417742D02*
X177954405Y-74320980D01*
X177954405Y-74320980D02*
X177906024Y-74272600D01*
X177906024Y-74272600D02*
X177809262Y-74224219D01*
X177809262Y-74224219D02*
X177518976Y-74224219D01*
X177518976Y-74224219D02*
X177422214Y-74272600D01*
X177422214Y-74272600D02*
X177373833Y-74320980D01*
X194482167Y-68072264D02*
X194482167Y-69088264D01*
X194482167Y-69088264D02*
X195062739Y-68072264D01*
X195062739Y-68072264D02*
X195062739Y-69088264D01*
X196127120Y-68169025D02*
X196078739Y-68120645D01*
X196078739Y-68120645D02*
X195933596Y-68072264D01*
X195933596Y-68072264D02*
X195836834Y-68072264D01*
X195836834Y-68072264D02*
X195691691Y-68120645D01*
X195691691Y-68120645D02*
X195594929Y-68217406D01*
X195594929Y-68217406D02*
X195546548Y-68314168D01*
X195546548Y-68314168D02*
X195498167Y-68507692D01*
X195498167Y-68507692D02*
X195498167Y-68652835D01*
X195498167Y-68652835D02*
X195546548Y-68846359D01*
X195546548Y-68846359D02*
X195594929Y-68943121D01*
X195594929Y-68943121D02*
X195691691Y-69039883D01*
X195691691Y-69039883D02*
X195836834Y-69088264D01*
X195836834Y-69088264D02*
X195933596Y-69088264D01*
X195933596Y-69088264D02*
X196078739Y-69039883D01*
X196078739Y-69039883D02*
X196127120Y-68991502D01*
X194482167Y-70472264D02*
X194482167Y-71488264D01*
X194482167Y-71488264D02*
X194724072Y-71488264D01*
X194724072Y-71488264D02*
X194869215Y-71439883D01*
X194869215Y-71439883D02*
X194965977Y-71343121D01*
X194965977Y-71343121D02*
X195014358Y-71246359D01*
X195014358Y-71246359D02*
X195062739Y-71052835D01*
X195062739Y-71052835D02*
X195062739Y-70907692D01*
X195062739Y-70907692D02*
X195014358Y-70714168D01*
X195014358Y-70714168D02*
X194965977Y-70617406D01*
X194965977Y-70617406D02*
X194869215Y-70520645D01*
X194869215Y-70520645D02*
X194724072Y-70472264D01*
X194724072Y-70472264D02*
X194482167Y-70472264D01*
X195449786Y-70762549D02*
X195933596Y-70762549D01*
X195353024Y-70472264D02*
X195691691Y-71488264D01*
X195691691Y-71488264D02*
X196030358Y-70472264D01*
X196223881Y-71488264D02*
X196804453Y-71488264D01*
X196514167Y-70472264D02*
X196514167Y-71488264D01*
X197094738Y-70762549D02*
X197578548Y-70762549D01*
X196997976Y-70472264D02*
X197336643Y-71488264D01*
X197336643Y-71488264D02*
X197675310Y-70472264D01*
X195014358Y-66639883D02*
X194917596Y-66688264D01*
X194917596Y-66688264D02*
X194772453Y-66688264D01*
X194772453Y-66688264D02*
X194627310Y-66639883D01*
X194627310Y-66639883D02*
X194530548Y-66543121D01*
X194530548Y-66543121D02*
X194482167Y-66446359D01*
X194482167Y-66446359D02*
X194433786Y-66252835D01*
X194433786Y-66252835D02*
X194433786Y-66107692D01*
X194433786Y-66107692D02*
X194482167Y-65914168D01*
X194482167Y-65914168D02*
X194530548Y-65817406D01*
X194530548Y-65817406D02*
X194627310Y-65720645D01*
X194627310Y-65720645D02*
X194772453Y-65672264D01*
X194772453Y-65672264D02*
X194869215Y-65672264D01*
X194869215Y-65672264D02*
X195014358Y-65720645D01*
X195014358Y-65720645D02*
X195062739Y-65769025D01*
X195062739Y-65769025D02*
X195062739Y-66107692D01*
X195062739Y-66107692D02*
X194869215Y-66107692D01*
X195498167Y-65672264D02*
X195498167Y-66688264D01*
X195498167Y-66688264D02*
X196078739Y-65672264D01*
X196078739Y-65672264D02*
X196078739Y-66688264D01*
X196562548Y-65672264D02*
X196562548Y-66688264D01*
X196562548Y-66688264D02*
X196804453Y-66688264D01*
X196804453Y-66688264D02*
X196949596Y-66639883D01*
X196949596Y-66639883D02*
X197046358Y-66543121D01*
X197046358Y-66543121D02*
X197094739Y-66446359D01*
X197094739Y-66446359D02*
X197143120Y-66252835D01*
X197143120Y-66252835D02*
X197143120Y-66107692D01*
X197143120Y-66107692D02*
X197094739Y-65914168D01*
X197094739Y-65914168D02*
X197046358Y-65817406D01*
X197046358Y-65817406D02*
X196949596Y-65720645D01*
X196949596Y-65720645D02*
X196804453Y-65672264D01*
X196804453Y-65672264D02*
X196562548Y-65672264D01*
X194337024Y-74088264D02*
X194675691Y-73072264D01*
X194675691Y-73072264D02*
X195014358Y-74088264D01*
X195353024Y-73072264D02*
X195353024Y-74088264D01*
X195353024Y-74088264D02*
X195594929Y-74088264D01*
X195594929Y-74088264D02*
X195740072Y-74039883D01*
X195740072Y-74039883D02*
X195836834Y-73943121D01*
X195836834Y-73943121D02*
X195885215Y-73846359D01*
X195885215Y-73846359D02*
X195933596Y-73652835D01*
X195933596Y-73652835D02*
X195933596Y-73507692D01*
X195933596Y-73507692D02*
X195885215Y-73314168D01*
X195885215Y-73314168D02*
X195836834Y-73217406D01*
X195836834Y-73217406D02*
X195740072Y-73120645D01*
X195740072Y-73120645D02*
X195594929Y-73072264D01*
X195594929Y-73072264D02*
X195353024Y-73072264D01*
X196369024Y-73072264D02*
X196369024Y-74088264D01*
X196369024Y-74088264D02*
X196610929Y-74088264D01*
X196610929Y-74088264D02*
X196756072Y-74039883D01*
X196756072Y-74039883D02*
X196852834Y-73943121D01*
X196852834Y-73943121D02*
X196901215Y-73846359D01*
X196901215Y-73846359D02*
X196949596Y-73652835D01*
X196949596Y-73652835D02*
X196949596Y-73507692D01*
X196949596Y-73507692D02*
X196901215Y-73314168D01*
X196901215Y-73314168D02*
X196852834Y-73217406D01*
X196852834Y-73217406D02*
X196756072Y-73120645D01*
X196756072Y-73120645D02*
X196610929Y-73072264D01*
X196610929Y-73072264D02*
X196369024Y-73072264D01*
X195854666Y-94913715D02*
X195709523Y-94962095D01*
X195709523Y-94962095D02*
X195467618Y-94962095D01*
X195467618Y-94962095D02*
X195370856Y-94913715D01*
X195370856Y-94913715D02*
X195322475Y-94865334D01*
X195322475Y-94865334D02*
X195274094Y-94768572D01*
X195274094Y-94768572D02*
X195274094Y-94671810D01*
X195274094Y-94671810D02*
X195322475Y-94575048D01*
X195322475Y-94575048D02*
X195370856Y-94526667D01*
X195370856Y-94526667D02*
X195467618Y-94478286D01*
X195467618Y-94478286D02*
X195661142Y-94429905D01*
X195661142Y-94429905D02*
X195757904Y-94381524D01*
X195757904Y-94381524D02*
X195806285Y-94333143D01*
X195806285Y-94333143D02*
X195854666Y-94236381D01*
X195854666Y-94236381D02*
X195854666Y-94139619D01*
X195854666Y-94139619D02*
X195806285Y-94042857D01*
X195806285Y-94042857D02*
X195757904Y-93994476D01*
X195757904Y-93994476D02*
X195661142Y-93946095D01*
X195661142Y-93946095D02*
X195419237Y-93946095D01*
X195419237Y-93946095D02*
X195274094Y-93994476D01*
X194935428Y-93946095D02*
X194693523Y-94962095D01*
X194693523Y-94962095D02*
X194499999Y-94236381D01*
X194499999Y-94236381D02*
X194306475Y-94962095D01*
X194306475Y-94962095D02*
X194064571Y-93946095D01*
X193774285Y-93946095D02*
X193145332Y-93946095D01*
X193145332Y-93946095D02*
X193483999Y-94333143D01*
X193483999Y-94333143D02*
X193338856Y-94333143D01*
X193338856Y-94333143D02*
X193242094Y-94381524D01*
X193242094Y-94381524D02*
X193193713Y-94429905D01*
X193193713Y-94429905D02*
X193145332Y-94526667D01*
X193145332Y-94526667D02*
X193145332Y-94768572D01*
X193145332Y-94768572D02*
X193193713Y-94865334D01*
X193193713Y-94865334D02*
X193242094Y-94913715D01*
X193242094Y-94913715D02*
X193338856Y-94962095D01*
X193338856Y-94962095D02*
X193629142Y-94962095D01*
X193629142Y-94962095D02*
X193725904Y-94913715D01*
X193725904Y-94913715D02*
X193774285Y-94865334D01*
X215354666Y-94913715D02*
X215209523Y-94962095D01*
X215209523Y-94962095D02*
X214967618Y-94962095D01*
X214967618Y-94962095D02*
X214870856Y-94913715D01*
X214870856Y-94913715D02*
X214822475Y-94865334D01*
X214822475Y-94865334D02*
X214774094Y-94768572D01*
X214774094Y-94768572D02*
X214774094Y-94671810D01*
X214774094Y-94671810D02*
X214822475Y-94575048D01*
X214822475Y-94575048D02*
X214870856Y-94526667D01*
X214870856Y-94526667D02*
X214967618Y-94478286D01*
X214967618Y-94478286D02*
X215161142Y-94429905D01*
X215161142Y-94429905D02*
X215257904Y-94381524D01*
X215257904Y-94381524D02*
X215306285Y-94333143D01*
X215306285Y-94333143D02*
X215354666Y-94236381D01*
X215354666Y-94236381D02*
X215354666Y-94139619D01*
X215354666Y-94139619D02*
X215306285Y-94042857D01*
X215306285Y-94042857D02*
X215257904Y-93994476D01*
X215257904Y-93994476D02*
X215161142Y-93946095D01*
X215161142Y-93946095D02*
X214919237Y-93946095D01*
X214919237Y-93946095D02*
X214774094Y-93994476D01*
X214435428Y-93946095D02*
X214193523Y-94962095D01*
X214193523Y-94962095D02*
X213999999Y-94236381D01*
X213999999Y-94236381D02*
X213806475Y-94962095D01*
X213806475Y-94962095D02*
X213564571Y-93946095D01*
X213225904Y-94042857D02*
X213177523Y-93994476D01*
X213177523Y-93994476D02*
X213080761Y-93946095D01*
X213080761Y-93946095D02*
X212838856Y-93946095D01*
X212838856Y-93946095D02*
X212742094Y-93994476D01*
X212742094Y-93994476D02*
X212693713Y-94042857D01*
X212693713Y-94042857D02*
X212645332Y-94139619D01*
X212645332Y-94139619D02*
X212645332Y-94236381D01*
X212645332Y-94236381D02*
X212693713Y-94381524D01*
X212693713Y-94381524D02*
X213274285Y-94962095D01*
X213274285Y-94962095D02*
X212645332Y-94962095D01*
X164503715Y-109225333D02*
X164552095Y-109370476D01*
X164552095Y-109370476D02*
X164552095Y-109612381D01*
X164552095Y-109612381D02*
X164503715Y-109709143D01*
X164503715Y-109709143D02*
X164455334Y-109757524D01*
X164455334Y-109757524D02*
X164358572Y-109805905D01*
X164358572Y-109805905D02*
X164261810Y-109805905D01*
X164261810Y-109805905D02*
X164165048Y-109757524D01*
X164165048Y-109757524D02*
X164116667Y-109709143D01*
X164116667Y-109709143D02*
X164068286Y-109612381D01*
X164068286Y-109612381D02*
X164019905Y-109418857D01*
X164019905Y-109418857D02*
X163971524Y-109322095D01*
X163971524Y-109322095D02*
X163923143Y-109273714D01*
X163923143Y-109273714D02*
X163826381Y-109225333D01*
X163826381Y-109225333D02*
X163729619Y-109225333D01*
X163729619Y-109225333D02*
X163632857Y-109273714D01*
X163632857Y-109273714D02*
X163584476Y-109322095D01*
X163584476Y-109322095D02*
X163536095Y-109418857D01*
X163536095Y-109418857D02*
X163536095Y-109660762D01*
X163536095Y-109660762D02*
X163584476Y-109805905D01*
X163536095Y-110144571D02*
X164552095Y-110386476D01*
X164552095Y-110386476D02*
X163826381Y-110580000D01*
X163826381Y-110580000D02*
X164552095Y-110773524D01*
X164552095Y-110773524D02*
X163536095Y-111015429D01*
X164552095Y-111934667D02*
X164552095Y-111354095D01*
X164552095Y-111644381D02*
X163536095Y-111644381D01*
X163536095Y-111644381D02*
X163681238Y-111547619D01*
X163681238Y-111547619D02*
X163778000Y-111450857D01*
X163778000Y-111450857D02*
X163826381Y-111354095D01*
%TO.C,SW3*%
D12*
X203500000Y-93750000D02*
X203500000Y-95250000D01*
X202250000Y-97750000D02*
X197750000Y-97750000D01*
X197750000Y-91250000D02*
X202250000Y-91250000D01*
X196500000Y-95250000D02*
X196500000Y-93750000D01*
%TO.C,SW2*%
X216000000Y-95250000D02*
X216000000Y-93750000D01*
X217250000Y-91250000D02*
X221750000Y-91250000D01*
X221750000Y-97750000D02*
X217250000Y-97750000D01*
X223000000Y-93750000D02*
X223000000Y-95250000D01*
%TO.C,SW1*%
X165890000Y-104890000D02*
X168400000Y-104890000D01*
X165890000Y-104890000D02*
X165890000Y-117110000D01*
X170700000Y-104890000D02*
X173300000Y-104890000D01*
X175600000Y-104890000D02*
X178110000Y-104890000D01*
X165890000Y-117110000D02*
X168400000Y-117110000D01*
X170700000Y-117110000D02*
X173300000Y-117110000D01*
X175600000Y-117110000D02*
X178110000Y-117110000D01*
X178110000Y-117110000D02*
X178110000Y-104890000D01*
X175550000Y-111000000D02*
G75*
G02*
X168450000Y-111000000I-3550000J0D01*
G01*
X168450000Y-111000000D02*
G75*
G02*
X175550000Y-111000000I3550000J0D01*
G01*
%TD*%
M02*
